<?xml version="1.0" encoding="utf-8"?>
<!-- Generator: Adobe Illustrator 26.6.0, SVG Export Plug-In . SVG Version: 6.00 Build 0)  -->
<svg version="1.1" id="Layer_1" xmlns="http://www.w3.org/2000/svg" xmlns:xlink="http://www.w3.org/1999/xlink" x="0px" y="0px"
	 viewBox="0 0 28 28" style="enable-background:new 0 0 28 28;" xml:space="preserve">
<path d="M3,23.4H25c2,0,3-1,3-3V7.7c0-2-1-3-3-3H3c-2,0-3,1-3,3v12.7C0,22.4,1,23.4,3,23.4z M10.6,19.1c-0.6,0-0.9-0.4-0.9-1v-0.9
	H6.1c-0.8,0-1.3-0.5-1.3-1.2c0-0.4,0.1-0.7,0.3-1.1c0.8-1.3,2-3.1,3-4.7C8.6,9.4,9.1,9,10,9s1.5,0.6,1.5,1.3v5.1h0.7
	c0.5,0,0.9,0.3,0.9,0.8c0,0.5-0.4,0.8-0.9,0.8h-0.7v0.9C11.6,18.7,11.2,19.1,10.6,19.1z M15.4,19c-0.6,0-1-0.4-1-1.1v-7.7
	c0-0.7,0.4-1.1,1-1.1c0.6,0,1,0.4,1,1.1v3.4h0.1l3.9-4.1c0.3-0.3,0.5-0.4,0.8-0.4c0.5,0,0.9,0.3,0.9,0.8c0,0.3-0.1,0.5-0.3,0.7
	l-2.7,2.9l3,3.9c0.2,0.2,0.3,0.5,0.3,0.7c0,0.5-0.4,0.9-0.9,0.9c-0.4,0-0.6-0.1-0.9-0.5l-2.9-3.8L16.4,16V18
	C16.4,18.7,16,19,15.4,19z M9.7,15.5v-4.9H9.6c-1,1.6-2.2,3.5-3,4.8v0.1H9.7z"/>
</svg>
