<?xml version="1.0" encoding="utf-8"?>
<!-- Generator: Adobe Illustrator 26.6.0, SVG Export Plug-In . SVG Version: 6.00 Build 0)  -->
<svg version="1.1" id="Layer_1" xmlns="http://www.w3.org/2000/svg" xmlns:xlink="http://www.w3.org/1999/xlink" x="0px" y="0px"
	 viewBox="0 0 28 28" style="enable-background:new 0 0 28 28;" xml:space="preserve">
<path d="M0,19.1c0,3.1,2.7,5.4,6.1,5.4c3.4,0,6.1-2.3,6.1-5.4v-2.6c0.5-0.2,1.1-0.3,1.8-0.3c0.7,0,1.3,0.1,1.8,0.2v2.6
	c0,3.1,2.7,5.4,6.1,5.4s6.1-2.3,6.1-5.4c0-0.8-0.1-1.6-0.5-2.5L23,6.2c-0.6-1.5-2-2.4-3.7-2.4c-2.2,0-3.6,1.4-3.6,3.5v0.9
	C15.2,8,14.7,7.9,14,7.9c-0.6,0-1.2,0.1-1.8,0.2V7.2c0-2.1-1.4-3.5-3.6-3.5C6.9,3.7,5.6,4.6,5,6.1L0.5,16.5C0.1,17.5,0,18.3,0,19.1z
	 M3.7,14.2l3.1-7.3c0.3-0.8,1-1.2,1.7-1.2c1,0,1.7,0.7,1.7,1.7v7.9c-1-0.9-2.5-1.5-4.1-1.5C5.3,13.7,4.4,13.9,3.7,14.2z M24.3,14.2
	c-0.7-0.3-1.6-0.5-2.4-0.5c-1.6,0-3.1,0.6-4.1,1.5V7.3c0-1,0.6-1.7,1.6-1.7c0.8,0,1.4,0.4,1.7,1.2L24.3,14.2z M14,9.6
	c0.7,0,1.3,0.1,1.8,0.2v1.6c-0.5-0.1-1.1-0.2-1.8-0.2c-0.6,0-1.2,0.1-1.8,0.2V9.9C12.7,9.7,13.4,9.6,14,9.6z M14,12.9
	c0.7,0,1.3,0.1,1.8,0.2v1.6c-0.5-0.1-1.1-0.2-1.8-0.2c-0.6,0-1.2,0.1-1.8,0.2v-1.6C12.7,13,13.4,12.9,14,12.9z M2.1,19.1
	c0-2,1.7-3.4,4-3.4c2.3,0,4.1,1.4,4.1,3.4c0,2-1.8,3.4-4.1,3.4C3.8,22.4,2.1,21.1,2.1,19.1z M25.9,19.1c0,2-1.7,3.4-4,3.4
	c-2.3,0-4.1-1.4-4.1-3.4c0-2,1.8-3.4,4.1-3.4C24.2,15.7,25.9,17,25.9,19.1z"/>
</svg>
