<?xml version="1.0" encoding="utf-8"?>
<!-- Generator: Adobe Illustrator 26.6.0, SVG Export Plug-In . SVG Version: 6.00 Build 0)  -->
<svg version="1.1" id="Layer_1" xmlns="http://www.w3.org/2000/svg" xmlns:xlink="http://www.w3.org/1999/xlink" x="0px" y="0px"
	 viewBox="0 0 28 28" style="enable-background:new 0 0 28 28;" xml:space="preserve">
<path d="M3.8,25.5h4.5v1.3c0,0.7,0.5,1.2,1.2,1.2c0.7,0,1.2-0.5,1.2-1.2v-1.3h2.2v1.3c0,0.7,0.5,1.2,1.2,1.2c0.7,0,1.2-0.5,1.2-1.2
	v-1.3h2.2v1.3c0,0.7,0.5,1.2,1.2,1.2c0.7,0,1.2-0.5,1.2-1.2v-1.3h4.5c0.7,0,1.2-0.5,1.2-1.2v-4.5h1.3c0.7,0,1.2-0.5,1.2-1.2
	c0-0.7-0.5-1.2-1.2-1.2h-1.3v-2.2h1.3c0.7,0,1.2-0.5,1.2-1.2c0-0.7-0.5-1.2-1.2-1.2h-1.3v-2.2h1.3c0.7,0,1.2-0.5,1.2-1.2
	c0-0.7-0.5-1.2-1.2-1.2h-1.3V3.7c0-0.7-0.5-1.2-1.2-1.2h-4.5V1.3c0-0.7-0.5-1.2-1.2-1.2s-1.2,0.5-1.2,1.2v1.3h-2.2V1.3
	c0-0.7-0.5-1.2-1.2-1.2c-0.7,0-1.2,0.5-1.2,1.2v1.3h-2.2V1.3c0-0.7-0.5-1.2-1.2-1.2c-0.7,0-1.2,0.5-1.2,1.2v1.3H3.8
	C3.1,2.5,2.6,3,2.6,3.7v4.5H1.2C0.5,8.2,0,8.7,0,9.4c0,0.7,0.5,1.2,1.2,1.2h1.4v2.2H1.2C0.5,12.8,0,13.3,0,14c0,0.7,0.5,1.2,1.2,1.2
	h1.4v2.2H1.2c-0.7,0-1.2,0.5-1.2,1.2c0,0.7,0.5,1.2,1.2,1.2h1.4v4.5C2.6,25,3.1,25.5,3.8,25.5z M8.9,20.2c-0.7,0-1.1-0.4-1.1-1.1
	V8.9c0-0.7,0.4-1.1,1.1-1.1h10.3c0.7,0,1.1,0.4,1.1,1.1v10.3c0,0.7-0.4,1.1-1.1,1.1H8.9z M10.3,18.1h7.6c0.2,0,0.3-0.1,0.3-0.3v-7.6
	c0-0.2-0.1-0.3-0.3-0.3h-7.6c-0.2,0-0.3,0.1-0.3,0.3v7.6C9.9,18,10.1,18.1,10.3,18.1z"/>
</svg>
