<?xml version="1.0" encoding="utf-8"?>
<!-- Generator: Adobe Illustrator 26.6.0, SVG Export Plug-In . SVG Version: 6.00 Build 0)  -->
<svg version="1.1" id="Layer_1" xmlns="http://www.w3.org/2000/svg" xmlns:xlink="http://www.w3.org/1999/xlink" x="0px" y="0px"
	 viewBox="0 0 28 28" style="enable-background:new 0 0 28 28;" xml:space="preserve">
<path d="M3.7,24.4h20.6c2.4,0,3.7-1.3,3.7-3.7V8.8c0-2.4-1.3-3.7-3.7-3.7h-3c-0.9,0-1.2-0.1-1.7-0.7l-0.9-1
	c-0.6-0.6-1.2-0.9-2.3-0.9h-4.7c-1.2,0-1.8,0.3-2.3,0.9l-0.9,1C7.9,5,7.6,5.2,6.7,5.2h-3C1.3,5.2,0,6.4,0,8.8v11.9
	C0,23.2,1.3,24.4,3.7,24.4z M14,20.9c-3.4,0-6.1-2.7-6.1-6.1c0-3.4,2.7-6.1,6.1-6.1c3.4,0,6.1,2.7,6.1,6.1
	C20.1,18.2,17.4,20.9,14,20.9z M20.8,10.6c0-0.8,0.7-1.5,1.5-1.5c0.8,0,1.5,0.7,1.5,1.5c0,0.8-0.7,1.5-1.5,1.5
	C21.5,12.1,20.8,11.4,20.8,10.6z M14,18.8c2.3,0,4.1-1.8,4.1-4.1c0-2.3-1.8-4.1-4.1-4.1c-2.2,0-4.1,1.8-4.1,4.1
	C9.9,17,11.8,18.8,14,18.8z"/>
</svg>
