<svg version="1.1" id="Layer_1" xmlns="http://www.w3.org/2000/svg" xmlns:xlink="http://www.w3.org/1999/xlink" x="0px" y="0px"
	 viewBox="0 0 28 28" style="enable-background:new 0 0 28 28;" xml:space="preserve">
<path d="M13.4,28c6.9,0,11.5-4.6,11.5-11.6C24.8,4.8,15,0,8.2,0C6.9,0,6,0.5,6,1.4c0,0.4,0.2,0.7,0.4,1.1c1.6,1.9,3,4,3.1,6.4
	c0,0.3,0,0.5-0.1,0.7c-0.8-1.6-2-2.5-3.1-2.5c-0.6,0-1,0.4-1,1.1c0,0.4,0.1,1.1,0.1,1.7c0,2.9-2.2,4.4-2.2,9.1
	C3.2,24.4,7.2,28,13.4,28z M13.5,25.8c-4.9,0-8.2-2.7-8.2-6.7c0-4,2.2-5.3,2.2-8.9c0-0.1,0-0.2,0-0.3c0.7,0.8,1.2,1.8,1.5,3.1
	c0.1,0.4,0.3,0.5,0.5,0.5c1.2,0,1.9-2.6,1.9-4.5c0-2.6-1-5.1-2.6-6.9c8.4,0.7,13.8,6.5,13.8,14.2C22.6,22,19,25.8,13.5,25.8z
	 M13.7,24.1c2.9,0,4.5-2.1,4.5-4.7c0-2.5-1.5-5.2-4.2-6.5c-0.2-0.1-0.3,0-0.2,0.2c0.2,2,0,3.8-0.7,4.8c-0.3-0.8-0.7-1.4-1.2-1.9
	c-0.1-0.1-0.3-0.1-0.3,0.1c-0.2,1.5-1.7,2.3-1.7,4.5C9.8,22.6,11.3,24.1,13.7,24.1z"/>
</svg>