<?xml version="1.0" encoding="utf-8"?>
<!-- Generator: Adobe Illustrator 26.6.0, SVG Export Plug-In . SVG Version: 6.00 Build 0)  -->
<svg version="1.1" id="Layer_1" xmlns="http://www.w3.org/2000/svg" xmlns:xlink="http://www.w3.org/1999/xlink" x="0px" y="0px"
	 viewBox="0 0 1080 1080" style="enable-background:new 0 0 1080 1080;" xml:space="preserve">
<style type="text/css">
	.st0{fill:#FFAE70;}
	.st1{fill:#FFA057;}
	.st2{fill:#FFFFFF;}
</style>
<g id="golden_ticket">
	<g>
		<path class="st0" d="M854.81,1061.1c5.58-74.55,62.77-142.39,135.29-160.53c-29.78-230.12,23.98-652.03,3.75-648.86
			c-20.23,3.18-40.1-7.96-55.32-21.65c-38.07-34.23-57.94-87.61-51.45-138.39c-43.44,9.71-88.34,9-132.79,8.2l-376.13-6.28
			c6.05,77.17-64.34,144.16-141.56,149.51"/>
		<path class="st1" d="M236.61,243.16c5.19,217.95,10.37,435.91,15.54,653.86c77.53,9.08,143.86,77.72,150.36,155.52
			c150.17-22.6,303.08-19.71,452.3,8.55"/>
	</g>
	<path id="glint" class="st2" d="M852.74,86.51c12.76-5.14,29.48-14.77,33.29-27.98c5.57-19.06,8.88-38.7,9.87-58.53l2.09,57.05
		c0.26,6.92,0.8,14.53,5.67,19.43c4.63,4.63,11.77,5.42,18.31,5.7c16.07,0.68,32.16-0.09,48.09-2.32
		c-23.67,3.39-50.19,8.53-63.34,28.49c-4.93,7.47-7.35,16.31-9.17,25.09c-3.41,16.5-4.89,33.34-4.4,50.18
		c-0.07-20.25-0.15-40.49-0.24-60.72c0-9.93-0.82-21.37-8.79-27.24c-4.34-3.21-9.97-4.01-15.34-4.39
		c-13.62-0.94-22.5,0.58-40.86,0.58C836.4,91.25,844.76,89.45,852.74,86.51z"/>
	<path id="glint-2" class="st2" d="M69.62,696.67c12.76-5.16,29.48-14.78,33.29-27.99c5.54-19.04,8.84-38.66,9.82-58.47l2.07,57.09
		c0.26,6.92,0.79,14.53,5.67,19.43c4.63,4.65,11.76,5.43,18.31,5.7c16.07,0.69,32.16-0.08,48.09-2.32
		c-23.67,3.4-50.19,8.53-63.34,28.49c-4.93,7.57-7.37,16.31-9.18,25.09c-3.41,16.5-4.88,33.34-4.39,50.18
		c-0.09-20.23-0.18-40.47-0.26-60.72c0-9.93-0.8-21.35-8.78-27.24c-4.34-3.21-9.97-4.02-15.36-4.4
		c-13.62-0.94-22.49,0.58-40.86,0.58C53.23,701.47,61.62,699.64,69.62,696.67z"/>
	<path id="glint-3" class="st2" d="M918.8,982.87c12.76-5.14,29.48-14.77,33.29-27.98c5.54-19.04,8.83-38.66,9.82-58.47l2.09,57.05
		c0.24,6.92,0.79,14.53,5.67,19.43c4.63,4.63,11.76,5.42,18.31,5.7c16.07,0.69,32.16-0.09,48.09-2.33
		c-23.62,3.4-50.15,8.55-63.31,28.46c-4.93,7.47-7.37,16.31-9.18,25.07c-3.41,16.5-4.88,33.35-4.39,50.19
		c-0.09-20.25-0.18-40.49-0.26-60.72c0-9.93-0.8-21.37-8.78-27.24c-4.34-3.21-9.97-4.01-15.36-4.39
		c-13.62-0.95-22.49,0.56-40.86,0.56C902.44,987.61,910.81,985.82,918.8,982.87z"/>
</g>
<g>
</g>
<g>
</g>
<g>
</g>
<g>
</g>
<g>
</g>
<g>
</g>
<g>
</g>
<g>
</g>
<g>
</g>
<g>
</g>
<g>
</g>
<g>
</g>
<g>
</g>
<g>
</g>
<g>
</g>
</svg>
