<svg version="1.1" id="Layer_1" xmlns="http://www.w3.org/2000/svg" xmlns:xlink="http://www.w3.org/1999/xlink" x="0px" y="0px"
	 viewBox="0 0 28 28" style="enable-background:new 0 0 28 28;" xml:space="preserve">
<path d="M4,16c0,1.6,1,3,2.7,4v1c-0.6,0.2-0.9,0.7-0.9,1.3V25c0,0.9,0.6,1.4,1.4,1.4h0.4C8.5,26.5,9,25.9,9,25v-2.7
	c0-0.7-0.3-1.2-0.9-1.3v-0.2c1.6,0.6,3.6,1,5.8,1c6,0,10-2.6,10-5.8v-4.5l2.9-1.3c0.7-0.3,1.1-1,1.1-1.7c0-0.7-0.4-1.3-1.1-1.6
	l-10-4.6c-1.1-0.5-2-0.7-2.9-0.7c-0.9,0-1.8,0.2-2.9,0.7l-10,4.6C0.4,7.1,0,7.8,0,8.5c0,0.7,0.4,1.3,1.1,1.7L4,11.4V16z M14,13.4
	c-0.6,0-1.3-0.2-2.1-0.6l-2.7-1.2l3.9-2c0.3,0.1,0.6,0.1,1,0.1c1.2,0,2.3-0.5,2.3-1.3c0-0.7-1.1-1.3-2.3-1.3c-1.2,0-2.3,0.5-2.3,1.3
	c0,0.1,0,0.2,0.1,0.3l-4.2,2.2L2.9,8.8C2.7,8.7,2.6,8.6,2.6,8.5c0-0.1,0.1-0.2,0.2-0.3l9-4.1c0.8-0.4,1.5-0.6,2.1-0.6
	c0.6,0,1.3,0.2,2.1,0.6l9,4.1c0.2,0.1,0.2,0.2,0.2,0.3c0,0.1-0.1,0.2-0.2,0.3l-9,4.1C15.3,13.3,14.6,13.4,14,13.4z M5.9,16v-3.6
	l0.7,0.3v5C6.2,17.1,5.9,16.6,5.9,16z M14,15.4c0.9,0,1.8-0.2,2.9-0.7l5.2-2.4V16c0,2.1-3.2,3.9-8.1,3.9c-2.4,0-4.4-0.5-5.8-1.2
	v-5.4l3,1.3C12.2,15.2,13.1,15.4,14,15.4z"/>
</svg>