<svg version="1.1" id="Layer_1" xmlns="http://www.w3.org/2000/svg" xmlns:xlink="http://www.w3.org/1999/xlink" x="0px" y="0px"
	 viewBox="0 0 28 28" style="enable-background:new 0 0 28 28;" xml:space="preserve">
<path d="M6.6,28h14.6c1.6,0,2.6-0.9,2.6-2.5V25c0-4.2-4.5-7.6-6.3-9.3c-0.5-0.5-0.9-1-0.9-1.7c0-0.7,0.3-1.2,0.9-1.7
	c1.8-1.8,6.3-5,6.3-9.3V2.5c0-1.6-0.9-2.5-2.6-2.5H6.6C5.1,0,4.2,0.9,4.2,2.4V3c0,4.3,4.5,7.5,6.3,9.3c0.6,0.6,0.9,1,0.9,1.7
	c0,0.7-0.3,1.2-0.9,1.7c-1.8,1.7-6.3,5.1-6.3,9.3v0.6C4.2,27.1,5.1,28,6.6,28z M8.3,25.6c-0.8,0-1-0.9-0.3-1.4l5-3.8
	c0.2-0.1,0.3-0.2,0.3-0.4v-7.4c0-0.8-0.2-1.2-0.8-1.7C11.8,10.2,10.1,9,9.3,8C9,7.6,9.1,7.2,9.4,7.2h9.2c0.4,0,0.4,0.3,0.1,0.7
	c-0.8,1-2.4,2.2-3.2,2.9c-0.6,0.5-0.7,0.9-0.7,1.7V20c0,0.2,0.1,0.3,0.3,0.4l5,3.8c0.7,0.5,0.4,1.4-0.3,1.4H8.3z"/>
</svg>