<svg version="1.1" id="jello" xmlns="http://www.w3.org/2000/svg" xmlns:xlink="http://www.w3.org/1999/xlink" x="0px" y="0px"
	 viewBox="0 0 400 400" style="enable-background:new 0 0 400 400;" xml:space="preserve">
<style type="text/css">
	.st0{fill:#E95DD9;}
	.st1{fill:#FFBFF1;}
	.st2{fill:#FFE6D4;}
	.st3{fill:none;stroke:#000000;stroke-width:2;stroke-linecap:round;stroke-linejoin:round;stroke-miterlimit:10;}
	.st4{stroke:#000000;stroke-miterlimit:10;}
	.st5{fill:#FFFFFF;stroke:#000000;stroke-miterlimit:10;}
	.st6{fill:#FFBFEC;}
</style>
<g id="fangs">
	<path id="fang3" class="st0" d="M259.6,288.3c0.2,0.7,0.3,1.5,0.3,2.2c0.5,7.4-2.7,10.4-3.8,16.1c-1.6,8.6,3.4,14.8,0.9,16.3
		c-1.6,1-3.8-1.6-5.7-0.6c-2.9,1.5-0.7,9-1.3,15.7c-1.3,13.4-14,23.3-15.7,22.2c-2-1.3,7.1-20.2,13.8-45.6c1-3.8,3.1-12-0.5-20.1
		c-1-2.3-2.4-4.4-4-6.3c-6.5-7.6-11.5-7.4-15-14.1c-5.7-10.8,4.8-16,8.8-30.1c4.8-16.8-4.9-27.5-3-27.6c2.6-0.2,27.5,21.5,9.9,40.2
		c-5.2,5.5-12,8.6-10.1,14C237,279,256.6,280.1,259.6,288.3z"/>
	<path id="fang1" class="st0" d="M156.8,288.3c6.5,12.1,5.5,28.4-0.9,32.3c-2.6,1.6-6,1.1-7,3.5s1.5,4.5,2.5,7.6
		c3.9,11.7-16.9,30.3-22.1,28.6c-0.1,0-0.1,0-0.2-0.1c-2.1-1.4,11.8-14.9,10.6-30.3c-0.4-5.3-2.4-8.6-0.1-11.8s5.8-2,9-5.4
		c4-4.2,3.3-10.7,3.2-11.4c-0.8-6.4-6-9.4-11.9-15.1c-3.8-3.6-20.4-19.5-18.3-33.7c1.1-7.2,5.9-7.4,8.2-17.5
		c2.4-10.9-1.6-18.2-0.5-18.6c1.9-0.6,15.9,21.1,10.7,40.2c-0.8,2.9-1.6,4-1.6,6.6C138.5,273.7,150,275.9,156.8,288.3z"/>
	<path id="fang4" class="st0" d="M224.5,295.4c3,7,4.3,9.5,2.5,13c-2,3.7-5.6,4.4-8.8,7.2c-9,7.8,2.3,16.2,1.1,30.3
		c-1,11.8-10.3,21.8-12.9,21.5c-2.7-0.3,4.2-11.9,1.7-31.3c-1.6-12.4-6.4-21.9,2.8-27c4.1-2.3,9-2.6,10.3-5.5
		c1.5-3.4-4-5.8-7.7-10.3c-6.2-7.5,0.1-11.3-2.3-19.8c-3.4-12.1-18.2-12.3-22.2-22.9c-5.1-13.9,15.1-27.6,17.4-27
		c3,0.8-17.6,27.7-2.3,35.5c2.8,1.4,6.2,1.9,9.4,4.8c4.1,3.6,3,6.8,3.7,12.5C217.4,278.8,219.8,284.3,224.5,295.4z"/>
	<path id="fang2" class="st0" d="M186.7,295.4c4.7,12.1,4,28.4-0.6,32.3c-1.9,1.6-4.3,1.1-5.1,3.5s1.1,4.5,1.8,7.6
		c2.8,11.7-12.2,30.3-16,28.6c0,0-0.1,0-0.1-0.1c-1.5-1.4,8.5-14.9,7.7-30.3c-0.3-5.3-1.7-8.6-0.1-11.8s4.2-2,6.5-5.4
		c2.9-4.2,2.4-10.7,2.3-11.4c-0.6-6.4-4.4-9.4-8.6-15.1c-2.7-3.6-14.7-19.5-13.2-33.7c0.8-7.2,4.3-7.4,5.9-17.5
		c1.7-10.9-1.2-18.2-0.4-18.6c1.4-0.6,11.5,21.1,7.7,40.2c-0.6,2.9-1.1,4-1.1,6.6C173.4,280.7,181.8,282.9,186.7,295.4z"/>
</g>
<g id="face">
	<path id="outer" class="st1" d="M298.6,137.1c-1.7,10.8-11.6,37-27.2,53.7c-3.1,3.3-7.2,7-11,13.9c-8.3,15-5.2,26.9-10.9,28.9
		c-6.7,2.4-15.3-13.1-21.7-10.2c-5.3,2.4-1.8,12.9-7.7,16.7c-7,4.5-15.6-8.2-32.3-7.5c-11.6,0.4-13,6.7-22.7,5.3
		c-11.4-1.7-11.9-10.9-23-12.9c-12.7-2.3-19.5,8.6-27,5.1c-7.3-3.4-6.7-16.4-8-27.5c-4.2-35.8-30.5-44.1-30.1-65.3
		c1-49.3,54.6-95.4,110.7-95.4C251.4,41.7,304.2,101.6,298.6,137.1z"/>
	<ellipse id="inner" class="st2" cx="188.1" cy="135.3" rx="97.3" ry="83.8"/>
	<path id="mouth" class="st3" d="M204.9,158.9c-3.8,5.2-11.5,8.6-19.9,8.8c-9.1,0.2-17.6-3.2-21.7-8.8"/>
</g>
<g id="eyes">
	<g id="leye">
		<circle id="leye-2" class="st4" cx="153.9" cy="100.7" r="12.6"/>
		<circle id="linside" class="st5" cx="153.9" cy="100.7" r="4.6"/>
	</g>
	<g id="reye">
		<circle id="reye-2" class="st4" cx="220.6" cy="97.4" r="12.6"/>
		<circle id="rinside" class="st5" cx="220.6" cy="97.4" r="4.6"/>
	</g>
	<g id="eyebrows">
		<path id="lbrow" class="st3" d="M135.4,89.6c3-5.3,9.4-8.9,16.5-9.4c7.6-0.5,15,2.6,18.7,8"/>
		<path id="rbrow" class="st3" d="M201.3,84.7c3.6-4.9,10.4-7.7,17.5-7.4c7.7,0.4,14.6,4.4,17.6,10.2"/>
	</g>
</g>
<g id="cheeks">
	<ellipse id="rchick" class="st6" cx="257.2" cy="130.2" rx="13.9" ry="8.1"/>
	<ellipse id="lchick" class="st6" cx="121.5" cy="130.2" rx="13.9" ry="8.1"/>
</g>
</svg>
