<svg version="1.1" id="Layer_1" xmlns="http://www.w3.org/2000/svg" xmlns:xlink="http://www.w3.org/1999/xlink" x="0px" y="0px"
	 viewBox="0 0 680 560" style="enable-background:new 0 0 680 560;" xml:space="preserve">
<style type="text/css">
	.st0{fill:#E6E7E8;stroke:#7C87A5;stroke-width:4.4;stroke-linecap:round;stroke-linejoin:round;stroke-miterlimit:80;}
	.st1{opacity:0.1;fill:#231F20;stroke:#231F20;stroke-width:17.8;stroke-miterlimit:80;enable-background:new    ;}
	.st2{fill:#414757;}
	.st3{fill:#EA4C59;}
	.st4{fill:#EA4C59;stroke:#EA4C59;stroke-width:4.4;stroke-linecap:round;stroke-linejoin:round;stroke-miterlimit:80;}
	.st5{fill:#FFFFFF;}
	.st6{fill:#FFBF00;}
	
		.st7{opacity:0.25;fill:#231F20;stroke:#231F20;stroke-width:17.8;stroke-linecap:round;stroke-linejoin:round;stroke-miterlimit:80;enable-background:new    ;}
	.st8{opacity:0.1;fill:#231F20;stroke:#231F20;stroke-width:13.4;stroke-miterlimit:80;enable-background:new    ;}
	.st9{fill:#414757;stroke:#414757;stroke-width:4.4;stroke-miterlimit:80;}
	.st10{fill:#E6E7E8;}
	.st11{fill:#231F20;}
	.st12{fill-rule:evenodd;clip-rule:evenodd;fill:#575E75;}
</style>
<polygon id="Shape" class="st0" points="402.2,2.2 402.2,20 295.6,20 295.6,2.2 304.4,2.2 304.4,6.6 313.4,6.6 313.4,2.2 384.4,2.2 
	384.4,6.6 393.4,6.6 393.4,2.2 "/>
<path id="Shape_00000176758641252807757970000006565656737344362126_" class="st1" d="M633.2,20H64.4c-19.6,0-35.5,15.8-35.6,35.4
	V500c0,15.4,10,29,24.6,33.8c3.6,1,7.3,1.6,11,1.6h568.8c3.7,0,7.4-0.6,11-1.6c14.6-4.8,24.6-18.4,24.6-33.8V55.4
	C668.7,35.8,652.8,20,633.2,20z M82.2,470.8c-7.9,0-15.3-4.2-19.2-11.1s-4-15.3,0-22.2s11.3-11.1,19.2-11.1s15.3,4.2,19.2,11.1
	s4,15.3,0,22.2S90.1,470.8,82.2,470.8z M207.6,470.8c-9,0-17.1-5.4-20.5-13.8c-3.4-8.3-1.5-17.9,4.9-24.2c6.4-6.3,16-8.2,24.3-4.7
	s13.6,11.7,13.6,20.7C229.7,461,219.8,470.8,207.6,470.8z M348.8,470.8c-9,0-17.1-5.4-20.5-13.8c-3.4-8.3-1.5-17.9,4.9-24.2
	s16-8.2,24.3-4.7s13.6,11.7,13.6,20.7C370.9,461,361,470.8,348.8,470.8z M490,470.8c-7.9,0-15.3-4.2-19.2-11.1s-4-15.3,0-22.2
	s11.3-11.1,19.2-11.1s15.3,4.2,19.2,11.1s4,15.3,0,22.2S497.9,470.8,490,470.8z M615.4,470.8c-9,0-17.1-5.4-20.5-13.8
	c-3.4-8.3-1.5-17.9,4.9-24.2c6.4-6.3,16-8.2,24.3-4.7s13.6,11.7,13.6,20.7C637.5,461,627.6,470.8,615.4,470.8z"/>
<path id="Shape_00000082335723119682587970000002874344373995660717_" class="st2" d="M633.2,20H64.4c-19.6,0-35.5,15.8-35.6,35.4
	V500c0,15.4,10,29,24.6,33.8c3.6,1,7.3,1.6,11,1.6h568.8c3.7,0,7.4-0.6,11-1.6c14.6-4.8,24.6-18.4,24.6-33.8V55.4
	C668.7,35.8,652.8,20,633.2,20z M82.2,470.8c-7.9,0-15.3-4.2-19.2-11.1s-4-15.3,0-22.2s11.3-11.1,19.2-11.1s15.3,4.2,19.2,11.1
	s4,15.3,0,22.2S90.1,470.8,82.2,470.8z M207.6,470.8c-9,0-17.1-5.4-20.5-13.8c-3.4-8.3-1.5-17.9,4.9-24.2c6.4-6.3,16-8.2,24.3-4.7
	s13.6,11.7,13.6,20.7C229.7,461,219.8,470.8,207.6,470.8z M348.8,470.8c-9,0-17.1-5.4-20.5-13.8c-3.4-8.3-1.5-17.9,4.9-24.2
	s16-8.2,24.3-4.7s13.6,11.7,13.6,20.7C370.9,461,361,470.8,348.8,470.8z M490,470.8c-7.9,0-15.3-4.2-19.2-11.1s-4-15.3,0-22.2
	s11.3-11.1,19.2-11.1s15.3,4.2,19.2,11.1s4,15.3,0,22.2S497.9,470.8,490,470.8z M615.4,470.8c-9,0-17.1-5.4-20.5-13.8
	c-3.4-8.3-1.5-17.9,4.9-24.2c6.4-6.3,16-8.2,24.3-4.7s13.6,11.7,13.6,20.7C637.5,461,627.6,470.8,615.4,470.8z"/>
<path id="Shape_00000128451516148005450520000003221756268653732798_" class="st3" d="M28.8,180V55.4C28.9,35.8,44.8,20,64.4,20
	h124.4L28.8,180z"/>
<polygon id="Shape_00000112605396059529452520000015372320219188117692_" class="st3" points="188.8,91.2 188.8,20 260,20 "/>
<polygon id="Shape_00000154415189640047720920000001735486631954055314_" class="st3" points="260,73.4 260,20 313.4,20 "/>
<polygon id="Shape_00000041986833424314823810000017721770728134061448_" class="st4" points="588.8,197.8 588.8,144.4 642.2,144.4 
	"/>
<polygon id="Shape_00000057863764599107979260000011903049478807357866_" class="st4" points="109,322.2 109,375.6 55.6,375.6 "/>
<path id="Rectangle-path" class="st5" d="M46.6,251.2H49c4.9,0,8.8,3.9,8.8,8.8v2.4c0,4.9-3.9,8.8-8.8,8.8h-2.4
	c-4.9,0-8.8-3.9-8.8-8.8V260C37.8,255.1,41.7,251.2,46.6,251.2z"/>
<path id="Rectangle-path_00000174592438995453046490000006735398995346791826_" class="st5" d="M651,251.2h2.4
	c4.9,0,8.8,3.9,8.8,8.8v2.4c0,4.9-3.9,8.8-8.8,8.8H651c-4.9,0-8.8-3.9-8.8-8.8V260C642.2,255.1,646.1,251.2,651,251.2z"/>
<path id="Shape_00000003808252313827742110000013796498953179819921_" class="st6" d="M371.2,111.2c3.4,0,6.2-2.8,6.2-6.2
	s-2.8-6.2-6.2-6.2c-3.4,0-6.2,2.8-6.2,6.2S367.8,111.2,371.2,111.2"/>
<path id="Shape_00000119075252165599854820000003469481882907149485_" class="st6" d="M326,98.8c-2.2,0-4.3,1.2-5.4,3.1
	s-1.1,4.3,0,6.2s3.2,3.1,5.4,3.1c3.4,0,6.2-2.8,6.2-6.2S329.4,98.8,326,98.8"/>
<path id="Shape_00000102509546211606029050000005957985950927718285_" class="st6" d="M326,86.6c-7-0.7-13.8,2.6-17.5,8.6
	s-3.7,13.5,0,19.5s10.5,9.3,17.5,8.6h45.6c7,0.7,13.8-2.6,17.5-8.6s3.7-13.5,0-19.5s-10.5-9.3-17.5-8.6H326 M371.6,135.4H326
	c-11.9,1.9-23.8-3.3-30.4-13.4s-6.6-23.1,0-33.2s18.5-15.3,30.4-13.4h45.6c11.9-1.9,23.8,3.3,30.4,13.4s6.6,23.1,0,33.2
	S383.5,137.3,371.6,135.4"/>
<path id="Rectangle-path_00000002347015036151482960000017117201019169983148_" class="st7" d="M73.2,215.6h71.2
	c4.9,0,8.8,3.9,8.8,8.8v71.2c0,4.9-3.9,8.8-8.8,8.8H73.2c-4.9,0-8.8-3.9-8.8-8.8v-71.2C64.4,219.5,68.3,215.6,73.2,215.6z"/>
<path id="Rectangle-path_00000175311084985508570110000017879798110894397062_" class="st0" d="M73.2,215.6h71.2
	c4.9,0,8.8,3.9,8.8,8.8v71.2c0,4.9-3.9,8.8-8.8,8.8H73.2c-4.9,0-8.8-3.9-8.8-8.8v-71.2C64.4,219.5,68.3,215.6,73.2,215.6z"/>
<circle id="Oval" class="st8" cx="108.8" cy="260" r="20"/>
<circle id="Oval_00000078033893859202833090000002375314638958680747_" class="st9" cx="108.8" cy="260" r="20"/>
<path id="Rectangle-path_00000109708612322810778990000010133870449914526865_" class="st7" d="M553.2,215.6h71.2
	c4.9,0,8.8,3.9,8.8,8.8v71.2c0,4.9-3.9,8.8-8.8,8.8h-71.2c-4.9,0-8.8-3.9-8.8-8.8v-71.2C544.4,219.5,548.3,215.6,553.2,215.6z"/>
<path id="Rectangle-path_00000091714249422895613280000012053542304191583903_" class="st0" d="M553.2,215.6h71.2
	c4.9,0,8.8,3.9,8.8,8.8v71.2c0,4.9-3.9,8.8-8.8,8.8h-71.2c-4.9,0-8.8-3.9-8.8-8.8v-71.2C544.4,219.5,548.3,215.6,553.2,215.6z"/>
<circle id="Oval_00000011743240855383316540000009125179504672529564_" class="st8" cx="588.8" cy="260" r="20"/>
<circle id="Oval_00000162323743632152286440000015860123995664835765_" class="st9" cx="588.8" cy="260" r="20"/>
<path id="Rectangle-path_00000002370984718617901390000004090066640036222393_" class="st10" d="M243,175.6h18.4
	c0.4,0,0.8,0.4,0.8,0.8v18.4c0,0.4-0.4,0.8-0.8,0.8H243c-0.4,0-0.8-0.4-0.8-0.8v-18.4C242.2,176,242.6,175.6,243,175.6z"/>
<path id="Rectangle-path_00000176734762252007439390000005615598968637405851_" class="st11" d="M243,188.8h18.4
	c0.4,0,0.8,0.4,0.8,0.8V208c0,0.4-0.4,0.8-0.8,0.8H243c-0.4,0-0.8-0.4-0.8-0.8v-18.4C242.2,189.2,242.6,188.8,243,188.8z"/>
<path id="Rectangle-path_00000010989831387203431770000014379734686200199580_" class="st10" d="M243,180h18.4
	c0.4,0,0.8,0.4,0.8,0.8v18.4c0,0.4-0.4,0.8-0.8,0.8H243c-0.4,0-0.8-0.4-0.8-0.8v-18.4C242.2,180.4,242.6,180,243,180z"/>
<path id="Rectangle-path_00000113317071389423027030000005420733264181420965_" class="st10" d="M294.2,175.6h18.4
	c0.4,0,0.8,0.4,0.8,0.8v18.4c0,0.4-0.4,0.8-0.8,0.8h-18.4c-0.4,0-0.8-0.4-0.8-0.8v-18.4C293.4,176,293.8,175.6,294.2,175.6z"/>
<path id="Rectangle-path_00000173148771916408353240000002404681935356652425_" class="st11" d="M294.2,188.8h18.4
	c0.4,0,0.8,0.4,0.8,0.8V208c0,0.4-0.4,0.8-0.8,0.8h-18.4c-0.4,0-0.8-0.4-0.8-0.8v-18.4C293.4,189.2,293.8,188.8,294.2,188.8z"/>
<path id="Rectangle-path_00000047781381536756784140000003835942754619663265_" class="st10" d="M294.2,180h18.4
	c0.4,0,0.8,0.4,0.8,0.8v18.4c0,0.4-0.4,0.8-0.8,0.8h-18.4c-0.4,0-0.8-0.4-0.8-0.8v-18.4C293.4,180.4,293.8,180,294.2,180z"/>
<path id="Rectangle-path_00000085213896757821394260000008442383979845513129_" class="st10" d="M345.2,175.6h18.4
	c0.4,0,0.8,0.4,0.8,0.8v18.4c0,0.4-0.4,0.8-0.8,0.8h-18.4c-0.4,0-0.8-0.4-0.8-0.8v-18.4C344.4,176,344.8,175.6,345.2,175.6z"/>
<path id="Rectangle-path_00000137851586456608366240000018176738520548500115_" class="st11" d="M345.2,188.8h18.4
	c0.4,0,0.8,0.4,0.8,0.8V208c0,0.4-0.4,0.8-0.8,0.8h-18.4c-0.4,0-0.8-0.4-0.8-0.8v-18.4C344.4,189.2,344.8,188.8,345.2,188.8z"/>
<path id="Rectangle-path_00000087373761562749553790000001940645278052220835_" class="st10" d="M345.2,180h18.4
	c0.4,0,0.8,0.4,0.8,0.8v18.4c0,0.4-0.4,0.8-0.8,0.8h-18.4c-0.4,0-0.8-0.4-0.8-0.8v-18.4C344.4,180.4,344.8,180,345.2,180z"/>
<path id="Rectangle-path_00000160187919182140853820000004654951688085345470_" class="st10" d="M396.4,175.6h18.4
	c0.4,0,0.8,0.4,0.8,0.8v18.4c0,0.4-0.4,0.8-0.8,0.8h-18.4c-0.4,0-0.8-0.4-0.8-0.8v-18.4C395.6,176,396,175.6,396.4,175.6z"/>
<path id="Rectangle-path_00000085215428952841212620000002337654799765637012_" class="st11" d="M396.4,188.8h18.4
	c0.4,0,0.8,0.4,0.8,0.8V208c0,0.4-0.4,0.8-0.8,0.8h-18.4c-0.4,0-0.8-0.4-0.8-0.8v-18.4C395.6,189.2,396,188.8,396.4,188.8z"/>
<path id="Rectangle-path_00000081613691546586573120000015342213426612121991_" class="st10" d="M396.4,180h18.4
	c0.4,0,0.8,0.4,0.8,0.8v18.4c0,0.4-0.4,0.8-0.8,0.8h-18.4c-0.4,0-0.8-0.4-0.8-0.8v-18.4C395.6,180.4,396,180,396.4,180z"/>
<path id="Rectangle-path_00000150076637410069133280000006009655110504736911_" class="st10" d="M447.4,175.6h18.4
	c0.4,0,0.8,0.4,0.8,0.8v18.4c0,0.4-0.4,0.8-0.8,0.8h-18.4c-0.4,0-0.8-0.4-0.8-0.8v-18.4C446.6,176,447,175.6,447.4,175.6z"/>
<path id="Rectangle-path_00000079451214233893727880000009098410028687200942_" class="st11" d="M447.4,188.8h18.4
	c0.4,0,0.8,0.4,0.8,0.8V208c0,0.4-0.4,0.8-0.8,0.8h-18.4c-0.4,0-0.8-0.4-0.8-0.8v-18.4C446.6,189.2,447,188.8,447.4,188.8z"/>
<path id="Rectangle-path_00000117658165975127532790000003272039094784643736_" class="st10" d="M447.4,180h18.4
	c0.4,0,0.8,0.4,0.8,0.8v18.4c0,0.4-0.4,0.8-0.8,0.8h-18.4c-0.4,0-0.8-0.4-0.8-0.8v-18.4C446.6,180.4,447,180,447.4,180z"/>
<path id="Rectangle-path_00000027572392300566349190000000442958361389679794_" class="st10" d="M243,225.6h18.4
	c0.4,0,0.8,0.4,0.8,0.8v18.4c0,0.4-0.4,0.8-0.8,0.8H243c-0.4,0-0.8-0.4-0.8-0.8v-18.4C242.2,226,242.6,225.6,243,225.6z"/>
<path id="Rectangle-path_00000108274575527124078630000003248901715490608520_" class="st11" d="M243,238.8h18.4
	c0.4,0,0.8,0.4,0.8,0.8V258c0,0.4-0.4,0.8-0.8,0.8H243c-0.4,0-0.8-0.4-0.8-0.8v-18.4C242.2,239.2,242.6,238.8,243,238.8z"/>
<path id="Rectangle-path_00000099641754593844103780000008313315023098028161_" class="st10" d="M243,230h18.4
	c0.4,0,0.8,0.4,0.8,0.8v18.4c0,0.4-0.4,0.8-0.8,0.8H243c-0.4,0-0.8-0.4-0.8-0.8v-18.4C242.2,230.4,242.6,230,243,230z"/>
<path id="Rectangle-path_00000123399451471759218270000011744328354598882227_" class="st10" d="M294.2,225.6h18.4
	c0.4,0,0.8,0.4,0.8,0.8v18.4c0,0.4-0.4,0.8-0.8,0.8h-18.4c-0.4,0-0.8-0.4-0.8-0.8v-18.4C293.4,226,293.8,225.6,294.2,225.6z"/>
<path id="Rectangle-path_00000158027323302750546610000000065086950771620792_" class="st11" d="M294.2,238.8h18.4
	c0.4,0,0.8,0.4,0.8,0.8V258c0,0.4-0.4,0.8-0.8,0.8h-18.4c-0.4,0-0.8-0.4-0.8-0.8v-18.4C293.4,239.2,293.8,238.8,294.2,238.8z"/>
<path id="Rectangle-path_00000176736302715579985710000006473144678567724710_" class="st10" d="M294.2,230h18.4
	c0.4,0,0.8,0.4,0.8,0.8v18.4c0,0.4-0.4,0.8-0.8,0.8h-18.4c-0.4,0-0.8-0.4-0.8-0.8v-18.4C293.4,230.4,293.8,230,294.2,230z"/>
<path id="Rectangle-path_00000065795473952060279520000013559411886510685589_" class="st10" d="M345.2,225.6h18.4
	c0.4,0,0.8,0.4,0.8,0.8v18.4c0,0.4-0.4,0.8-0.8,0.8h-18.4c-0.4,0-0.8-0.4-0.8-0.8v-18.4C344.4,226,344.8,225.6,345.2,225.6z"/>
<path id="Rectangle-path_00000072987100359295541720000005179892826347421077_" class="st11" d="M345.2,238.8h18.4
	c0.4,0,0.8,0.4,0.8,0.8V258c0,0.4-0.4,0.8-0.8,0.8h-18.4c-0.4,0-0.8-0.4-0.8-0.8v-18.4C344.4,239.2,344.8,238.8,345.2,238.8z"/>
<path id="Rectangle-path_00000132071556627026274880000006032085278524495281_" class="st10" d="M345.2,230h18.4
	c0.4,0,0.8,0.4,0.8,0.8v18.4c0,0.4-0.4,0.8-0.8,0.8h-18.4c-0.4,0-0.8-0.4-0.8-0.8v-18.4C344.4,230.4,344.8,230,345.2,230z"/>
<path id="Rectangle-path_00000003785916847641949320000008185000376773922489_" class="st10" d="M396.4,225.6h18.4
	c0.4,0,0.8,0.4,0.8,0.8v18.4c0,0.4-0.4,0.8-0.8,0.8h-18.4c-0.4,0-0.8-0.4-0.8-0.8v-18.4C395.6,226,396,225.6,396.4,225.6z"/>
<path id="Rectangle-path_00000132053409114489025920000011020953618538144925_" class="st11" d="M396.4,238.8h18.4
	c0.4,0,0.8,0.4,0.8,0.8V258c0,0.4-0.4,0.8-0.8,0.8h-18.4c-0.4,0-0.8-0.4-0.8-0.8v-18.4C395.6,239.2,396,238.8,396.4,238.8z"/>
<path id="Rectangle-path_00000075865113592082577730000012939809566542036109_" class="st10" d="M396.4,230h18.4
	c0.4,0,0.8,0.4,0.8,0.8v18.4c0,0.4-0.4,0.8-0.8,0.8h-18.4c-0.4,0-0.8-0.4-0.8-0.8v-18.4C395.6,230.4,396,230,396.4,230z"/>
<path id="Rectangle-path_00000112613277663644167840000001228102898398207140_" class="st10" d="M447.4,225.6h18.4
	c0.4,0,0.8,0.4,0.8,0.8v18.4c0,0.4-0.4,0.8-0.8,0.8h-18.4c-0.4,0-0.8-0.4-0.8-0.8v-18.4C446.6,226,447,225.6,447.4,225.6z"/>
<path id="Rectangle-path_00000116921743209784205810000013149388877729748098_" class="st11" d="M447.4,238.8h18.4
	c0.4,0,0.8,0.4,0.8,0.8V258c0,0.4-0.4,0.8-0.8,0.8h-18.4c-0.4,0-0.8-0.4-0.8-0.8v-18.4C446.6,239.2,447,238.8,447.4,238.8z"/>
<path id="Rectangle-path_00000029758275902317825790000017620307397133967258_" class="st10" d="M447.4,230h18.4
	c0.4,0,0.8,0.4,0.8,0.8v18.4c0,0.4-0.4,0.8-0.8,0.8h-18.4c-0.4,0-0.8-0.4-0.8-0.8v-18.4C446.6,230.4,447,230,447.4,230z"/>
<path id="Rectangle-path_00000036974082928792301410000003796711250631453330_" class="st10" d="M243,275.6h18.4
	c0.4,0,0.8,0.4,0.8,0.8v18.4c0,0.4-0.4,0.8-0.8,0.8H243c-0.4,0-0.8-0.4-0.8-0.8v-18.4C242.2,276,242.6,275.6,243,275.6z"/>
<path id="Rectangle-path_00000062172406741073609010000008702699938779583130_" class="st11" d="M243,288.8h18.4
	c0.4,0,0.8,0.4,0.8,0.8V308c0,0.4-0.4,0.8-0.8,0.8H243c-0.4,0-0.8-0.4-0.8-0.8v-18.4C242.2,289.2,242.6,288.8,243,288.8z"/>
<path id="Rectangle-path_00000106868873160767989510000013513729238567999901_" class="st10" d="M243,280h18.4
	c0.4,0,0.8,0.4,0.8,0.8v18.4c0,0.4-0.4,0.8-0.8,0.8H243c-0.4,0-0.8-0.4-0.8-0.8v-18.4C242.2,280.4,242.6,280,243,280z"/>
<path id="Rectangle-path_00000043451423308867348230000000825597008290124437_" class="st10" d="M294.2,275.6h18.4
	c0.4,0,0.8,0.4,0.8,0.8v18.4c0,0.4-0.4,0.8-0.8,0.8h-18.4c-0.4,0-0.8-0.4-0.8-0.8v-18.4C293.4,276,293.8,275.6,294.2,275.6z"/>
<path id="Rectangle-path_00000109712146830983788870000007262849710753899180_" class="st11" d="M294.2,288.8h18.4
	c0.4,0,0.8,0.4,0.8,0.8V308c0,0.4-0.4,0.8-0.8,0.8h-18.4c-0.4,0-0.8-0.4-0.8-0.8v-18.4C293.4,289.2,293.8,288.8,294.2,288.8z"/>
<path id="Rectangle-path_00000123423995078882959470000006614164832443083155_" class="st10" d="M294.2,280h18.4
	c0.4,0,0.8,0.4,0.8,0.8v18.4c0,0.4-0.4,0.8-0.8,0.8h-18.4c-0.4,0-0.8-0.4-0.8-0.8v-18.4C293.4,280.4,293.8,280,294.2,280z"/>
<path id="Rectangle-path_00000155138781329453072510000005688370775332881566_" class="st10" d="M345.2,275.6h18.4
	c0.4,0,0.8,0.4,0.8,0.8v18.4c0,0.4-0.4,0.8-0.8,0.8h-18.4c-0.4,0-0.8-0.4-0.8-0.8v-18.4C344.4,276,344.8,275.6,345.2,275.6z"/>
<path id="Rectangle-path_00000069363733454390973500000006719222218385592999_" class="st11" d="M345.2,288.8h18.4
	c0.4,0,0.8,0.4,0.8,0.8V308c0,0.4-0.4,0.8-0.8,0.8h-18.4c-0.4,0-0.8-0.4-0.8-0.8v-18.4C344.4,289.2,344.8,288.8,345.2,288.8z"/>
<path id="Rectangle-path_00000103947557575385120300000017937040864693034937_" class="st10" d="M345.2,280h18.4
	c0.4,0,0.8,0.4,0.8,0.8v18.4c0,0.4-0.4,0.8-0.8,0.8h-18.4c-0.4,0-0.8-0.4-0.8-0.8v-18.4C344.4,280.4,344.8,280,345.2,280z"/>
<path id="Rectangle-path_00000032608350621631894090000001506932422181443759_" class="st10" d="M396.4,275.6h18.4
	c0.4,0,0.8,0.4,0.8,0.8v18.4c0,0.4-0.4,0.8-0.8,0.8h-18.4c-0.4,0-0.8-0.4-0.8-0.8v-18.4C395.6,276,396,275.6,396.4,275.6z"/>
<path id="Rectangle-path_00000059305863644160953730000009538830914635850126_" class="st11" d="M396.4,288.8h18.4
	c0.4,0,0.8,0.4,0.8,0.8V308c0,0.4-0.4,0.8-0.8,0.8h-18.4c-0.4,0-0.8-0.4-0.8-0.8v-18.4C395.6,289.2,396,288.8,396.4,288.8z"/>
<path id="Rectangle-path_00000057855873386824054770000007398810296487085207_" class="st10" d="M396.4,280h18.4
	c0.4,0,0.8,0.4,0.8,0.8v18.4c0,0.4-0.4,0.8-0.8,0.8h-18.4c-0.4,0-0.8-0.4-0.8-0.8v-18.4C395.6,280.4,396,280,396.4,280z"/>
<path id="Rectangle-path_00000002352380117946504510000014051993072471708076_" class="st10" d="M447.4,275.6h18.4
	c0.4,0,0.8,0.4,0.8,0.8v18.4c0,0.4-0.4,0.8-0.8,0.8h-18.4c-0.4,0-0.8-0.4-0.8-0.8v-18.4C446.6,276,447,275.6,447.4,275.6z"/>
<path id="Rectangle-path_00000039852723168009380950000014783640337140376464_" class="st11" d="M447.4,288.8h18.4
	c0.4,0,0.8,0.4,0.8,0.8V308c0,0.4-0.4,0.8-0.8,0.8h-18.4c-0.4,0-0.8-0.4-0.8-0.8v-18.4C446.6,289.2,447,288.8,447.4,288.8z"/>
<path id="Rectangle-path_00000125580941218881525620000010930629537547003285_" class="st10" d="M447.4,280h18.4
	c0.4,0,0.8,0.4,0.8,0.8v18.4c0,0.4-0.4,0.8-0.8,0.8h-18.4c-0.4,0-0.8-0.4-0.8-0.8v-18.4C446.6,280.4,447,280,447.4,280z"/>
<path id="Rectangle-path_00000044888347513189608050000010926306048719709338_" class="st10" d="M243,325.6h18.4
	c0.4,0,0.8,0.4,0.8,0.8v18.4c0,0.4-0.4,0.8-0.8,0.8H243c-0.4,0-0.8-0.4-0.8-0.8v-18.4C242.2,326,242.6,325.6,243,325.6z"/>
<path id="Rectangle-path_00000142863819618496189400000003553469914244068023_" class="st11" d="M243,338.8h18.4
	c0.4,0,0.8,0.4,0.8,0.8V358c0,0.4-0.4,0.8-0.8,0.8H243c-0.4,0-0.8-0.4-0.8-0.8v-18.4C242.2,339.2,242.6,338.8,243,338.8z"/>
<path id="Rectangle-path_00000127039974157399267470000002350808264566870682_" class="st10" d="M243,330h18.4
	c0.4,0,0.8,0.4,0.8,0.8v18.4c0,0.4-0.4,0.8-0.8,0.8H243c-0.4,0-0.8-0.4-0.8-0.8v-18.4C242.2,330.4,242.6,330,243,330z"/>
<path id="Rectangle-path_00000103241209426456947780000000264014217497871780_" class="st10" d="M294.2,325.6h18.4
	c0.4,0,0.8,0.4,0.8,0.8v18.4c0,0.4-0.4,0.8-0.8,0.8h-18.4c-0.4,0-0.8-0.4-0.8-0.8v-18.4C293.4,326,293.8,325.6,294.2,325.6z"/>
<path id="Rectangle-path_00000077319078263553409110000008554387606662134159_" class="st11" d="M294.2,338.8h18.4
	c0.4,0,0.8,0.4,0.8,0.8V358c0,0.4-0.4,0.8-0.8,0.8h-18.4c-0.4,0-0.8-0.4-0.8-0.8v-18.4C293.4,339.2,293.8,338.8,294.2,338.8z"/>
<path id="Rectangle-path_00000106846730124807724780000017771794680365843849_" class="st10" d="M294.2,330h18.4
	c0.4,0,0.8,0.4,0.8,0.8v18.4c0,0.4-0.4,0.8-0.8,0.8h-18.4c-0.4,0-0.8-0.4-0.8-0.8v-18.4C293.4,330.4,293.8,330,294.2,330z"/>
<path id="Rectangle-path_00000072259032769590142210000008911297820222246283_" class="st10" d="M345.2,325.6h18.4
	c0.4,0,0.8,0.4,0.8,0.8v18.4c0,0.4-0.4,0.8-0.8,0.8h-18.4c-0.4,0-0.8-0.4-0.8-0.8v-18.4C344.4,326,344.8,325.6,345.2,325.6z"/>
<path id="Rectangle-path_00000045596319425942408290000012918171877477749383_" class="st11" d="M345.2,338.8h18.4
	c0.4,0,0.8,0.4,0.8,0.8V358c0,0.4-0.4,0.8-0.8,0.8h-18.4c-0.4,0-0.8-0.4-0.8-0.8v-18.4C344.4,339.2,344.8,338.8,345.2,338.8z"/>
<path id="Rectangle-path_00000135658857995247908840000007744797548146371493_" class="st10" d="M345.2,330h18.4
	c0.4,0,0.8,0.4,0.8,0.8v18.4c0,0.4-0.4,0.8-0.8,0.8h-18.4c-0.4,0-0.8-0.4-0.8-0.8v-18.4C344.4,330.4,344.8,330,345.2,330z"/>
<path id="Rectangle-path_00000065056970338269147860000016000737887598592699_" class="st10" d="M396.4,325.6h18.4
	c0.4,0,0.8,0.4,0.8,0.8v18.4c0,0.4-0.4,0.8-0.8,0.8h-18.4c-0.4,0-0.8-0.4-0.8-0.8v-18.4C395.6,326,396,325.6,396.4,325.6z"/>
<path id="Rectangle-path_00000160162732796841088570000018122784474992625047_" class="st11" d="M396.4,338.8h18.4
	c0.4,0,0.8,0.4,0.8,0.8V358c0,0.4-0.4,0.8-0.8,0.8h-18.4c-0.4,0-0.8-0.4-0.8-0.8v-18.4C395.6,339.2,396,338.8,396.4,338.8z"/>
<path id="Rectangle-path_00000092456783784725834290000013519357071335689095_" class="st10" d="M396.4,330h18.4
	c0.4,0,0.8,0.4,0.8,0.8v18.4c0,0.4-0.4,0.8-0.8,0.8h-18.4c-0.4,0-0.8-0.4-0.8-0.8v-18.4C395.6,330.4,396,330,396.4,330z"/>
<path id="Rectangle-path_00000098215627108109818320000002026447455633089668_" class="st10" d="M447.4,325.6h18.4
	c0.4,0,0.8,0.4,0.8,0.8v18.4c0,0.4-0.4,0.8-0.8,0.8h-18.4c-0.4,0-0.8-0.4-0.8-0.8v-18.4C446.6,326,447,325.6,447.4,325.6z"/>
<path id="Rectangle-path_00000114055152956777598250000016277327371282939797_" class="st11" d="M447.4,338.8h18.4
	c0.4,0,0.8,0.4,0.8,0.8V358c0,0.4-0.4,0.8-0.8,0.8h-18.4c-0.4,0-0.8-0.4-0.8-0.8v-18.4C446.6,339.2,447,338.8,447.4,338.8z"/>
<path id="Rectangle-path_00000060005354368115764010000012465220498857828771_" class="st10" d="M447.4,330h18.4
	c0.4,0,0.8,0.4,0.8,0.8v18.4c0,0.4-0.4,0.8-0.8,0.8h-18.4c-0.4,0-0.8-0.4-0.8-0.8v-18.4C446.6,330.4,447,330,447.4,330z"/>
<path id="Rectangle-path_00000134943521351127316780000011264575615401969815_" class="st10" d="M243,375.6h18.4
	c0.4,0,0.8,0.4,0.8,0.8v18.4c0,0.4-0.4,0.8-0.8,0.8H243c-0.4,0-0.8-0.4-0.8-0.8v-18.4C242.2,376,242.6,375.6,243,375.6z"/>
<path id="Rectangle-path_00000137093884283950133040000003306610339395489164_" class="st11" d="M243,388.8h18.4
	c0.4,0,0.8,0.4,0.8,0.8V408c0,0.4-0.4,0.8-0.8,0.8H243c-0.4,0-0.8-0.4-0.8-0.8v-18.4C242.2,389.2,242.6,388.8,243,388.8z"/>
<path id="Rectangle-path_00000037687389909490940980000016864404130983654286_" class="st10" d="M243,380h18.4
	c0.4,0,0.8,0.4,0.8,0.8v18.4c0,0.4-0.4,0.8-0.8,0.8H243c-0.4,0-0.8-0.4-0.8-0.8v-18.4C242.2,380.4,242.6,380,243,380z"/>
<path id="Rectangle-path_00000024002249235313754980000003570339318014415507_" class="st10" d="M294.2,375.6h18.4
	c0.4,0,0.8,0.4,0.8,0.8v18.4c0,0.4-0.4,0.8-0.8,0.8h-18.4c-0.4,0-0.8-0.4-0.8-0.8v-18.4C293.4,376,293.8,375.6,294.2,375.6z"/>
<path id="Rectangle-path_00000175303957302539834210000013864712531191717024_" class="st11" d="M294.2,388.8h18.4
	c0.4,0,0.8,0.4,0.8,0.8V408c0,0.4-0.4,0.8-0.8,0.8h-18.4c-0.4,0-0.8-0.4-0.8-0.8v-18.4C293.4,389.2,293.8,388.8,294.2,388.8z"/>
<path id="Rectangle-path_00000021082084778207591860000012123309218291104904_" class="st10" d="M294.2,380h18.4
	c0.4,0,0.8,0.4,0.8,0.8v18.4c0,0.4-0.4,0.8-0.8,0.8h-18.4c-0.4,0-0.8-0.4-0.8-0.8v-18.4C293.4,380.4,293.8,380,294.2,380z"/>
<path id="Rectangle-path_00000060746108007819089020000006714647156425321863_" class="st10" d="M345.2,375.6h18.4
	c0.4,0,0.8,0.4,0.8,0.8v18.4c0,0.4-0.4,0.8-0.8,0.8h-18.4c-0.4,0-0.8-0.4-0.8-0.8v-18.4C344.4,376,344.8,375.6,345.2,375.6z"/>
<path id="Rectangle-path_00000004533666588359827110000015843380755236277175_" class="st11" d="M345.2,388.8h18.4
	c0.4,0,0.8,0.4,0.8,0.8V408c0,0.4-0.4,0.8-0.8,0.8h-18.4c-0.4,0-0.8-0.4-0.8-0.8v-18.4C344.4,389.2,344.8,388.8,345.2,388.8z"/>
<path id="Rectangle-path_00000134224157474990703400000008398971420859633809_" class="st10" d="M345.2,380h18.4
	c0.4,0,0.8,0.4,0.8,0.8v18.4c0,0.4-0.4,0.8-0.8,0.8h-18.4c-0.4,0-0.8-0.4-0.8-0.8v-18.4C344.4,380.4,344.8,380,345.2,380z"/>
<path id="Rectangle-path_00000058579064944774215140000002557077948018855338_" class="st10" d="M396.4,375.6h18.4
	c0.4,0,0.8,0.4,0.8,0.8v18.4c0,0.4-0.4,0.8-0.8,0.8h-18.4c-0.4,0-0.8-0.4-0.8-0.8v-18.4C395.6,376,396,375.6,396.4,375.6z"/>
<path id="Rectangle-path_00000127032364213225463770000003200145005319885952_" class="st11" d="M396.4,388.8h18.4
	c0.4,0,0.8,0.4,0.8,0.8V408c0,0.4-0.4,0.8-0.8,0.8h-18.4c-0.4,0-0.8-0.4-0.8-0.8v-18.4C395.6,389.2,396,388.8,396.4,388.8z"/>
<path id="Rectangle-path_00000003074864497466969220000013144041640127480506_" class="st10" d="M396.4,380h18.4
	c0.4,0,0.8,0.4,0.8,0.8v18.4c0,0.4-0.4,0.8-0.8,0.8h-18.4c-0.4,0-0.8-0.4-0.8-0.8v-18.4C395.6,380.4,396,380,396.4,380z"/>
<path id="Rectangle-path_00000065766943652434411430000011190670564387084439_" class="st10" d="M447.4,375.6h18.4
	c0.4,0,0.8,0.4,0.8,0.8v18.4c0,0.4-0.4,0.8-0.8,0.8h-18.4c-0.4,0-0.8-0.4-0.8-0.8v-18.4C446.6,376,447,375.6,447.4,375.6z"/>
<path id="Rectangle-path_00000073684975909768828550000002979513532002965689_" class="st11" d="M447.4,388.8h18.4
	c0.4,0,0.8,0.4,0.8,0.8V408c0,0.4-0.4,0.8-0.8,0.8h-18.4c-0.4,0-0.8-0.4-0.8-0.8v-18.4C446.6,389.2,447,388.8,447.4,388.8z"/>
<path id="Rectangle-path_00000140704427347409811250000004407167818721077405_" class="st10" d="M447.4,380h18.4
	c0.4,0,0.8,0.4,0.8,0.8v18.4c0,0.4-0.4,0.8-0.8,0.8h-18.4c-0.4,0-0.8-0.4-0.8-0.8v-18.4C446.6,380.4,447,380,447.4,380z"/>
<path id="Shape_00000077323828349746568240000015873614765586348189_" class="st6" d="M48.8,473.4v58.2c-4-2-7.6-4.8-10.6-8.2v-50
	L48.8,473.4L48.8,473.4z"/>
<polygon id="Shape_00000078765050084429214610000003324614739818206907_" class="st6" points="61.6,535.4 64,535.4 64,473.4 
	53.4,473.4 53.4,533.8 "/>
<rect id="Rectangle-path_00000100377839543819273290000006007284337824331184_" x="69.2" y="473.4" class="st6" width="20" height="62"/>
<rect id="Rectangle-path_00000010272999263969420120000004777755959486328479_" x="84.8" y="473.4" class="st6" width="20" height="62"/>
<rect id="Rectangle-path_00000177443777673639098140000008145586307539089303_" x="100.6" y="473.4" class="st6" width="20" height="62"/>
<rect id="Rectangle-path_00000088816867843396231690000010825129170111232168_" x="116.2" y="473.4" class="st6" width="20" height="62"/>
<rect id="Rectangle-path_00000011001853503334494250000017732430026797157040_" x="131.8" y="473.4" class="st6" width="20" height="62"/>
<rect id="Rectangle-path_00000076567212255285696210000017253498946655968910_" x="147.6" y="473.4" class="st6" width="20" height="62"/>
<rect id="Rectangle-path_00000149366735490453417620000006039570359425170879_" x="163.2" y="473.4" class="st6" width="20" height="62"/>
<rect id="Rectangle-path_00000130647044280183341680000006819019015371438750_" x="179" y="473.4" class="st6" width="20" height="62"/>
<rect id="Rectangle-path_00000050629222005531952160000003488109066477734573_" x="194.6" y="473.4" class="st6" width="20" height="62"/>
<rect id="Rectangle-path_00000048480423864352376680000012350547957742253738_" x="210.4" y="473.4" class="st6" width="20" height="62"/>
<rect id="Rectangle-path_00000076573657096204141040000006384898817935796611_" x="226" y="473.4" class="st6" width="20" height="62"/>
<rect id="Rectangle-path_00000028309212616208299180000004659745156560579754_" x="241.6" y="473.4" class="st6" width="20" height="62"/>
<rect id="Rectangle-path_00000049926383837457818610000011493307477851345801_" x="257.4" y="473.4" class="st6" width="20" height="62"/>
<rect id="Rectangle-path_00000003784792787276134590000006424146754219550116_" x="273" y="473.4" class="st6" width="20" height="62"/>
<rect id="Rectangle-path_00000157304271946001110440000017558278711514032273_" x="288.8" y="473.4" class="st6" width="20" height="62"/>
<rect id="Rectangle-path_00000124880650010603927990000007950657228814138046_" x="304.4" y="473.4" class="st6" width="20" height="62"/>
<rect id="Rectangle-path_00000004530743998777964530000008486361277346740628_" x="320.2" y="473.4" class="st6" width="20" height="62"/>
<rect id="Rectangle-path_00000083774540047379294800000010904996712667683250_" x="335.8" y="473.4" class="st6" width="20" height="62"/>
<rect id="Rectangle-path_00000148649273629292057810000017150674781916611219_" x="351.6" y="473.4" class="st6" width="20" height="62"/>
<rect id="Rectangle-path_00000060734780289280379430000014509688787448672393_" x="367.2" y="473.4" class="st6" width="20" height="62"/>
<rect id="Rectangle-path_00000163786713426629180910000014110239835177627015_" x="382.8" y="473.4" class="st6" width="20" height="62"/>
<rect id="Rectangle-path_00000060721616299814748190000004580108139554508433_" x="398.6" y="473.4" class="st6" width="20" height="62"/>
<rect id="Rectangle-path_00000180335096494902945780000015420472934754404792_" x="414.2" y="473.4" class="st6" width="20" height="62"/>
<rect id="Rectangle-path_00000157299640128215964740000010604035398271982469_" x="430" y="473.4" class="st6" width="20" height="62"/>
<rect id="Rectangle-path_00000080184879255370891790000003946079282318602644_" x="445.6" y="473.4" class="st6" width="20" height="62"/>
<rect id="Rectangle-path_00000080197137518217974060000011787438394570724272_" x="461.2" y="473.4" class="st6" width="20" height="62"/>
<rect id="Rectangle-path_00000000927681411458924510000006012590579704562583_" x="477" y="473.4" class="st6" width="20" height="62"/>
<rect id="Rectangle-path_00000062156774402424393840000005804193451110662076_" x="492.6" y="473.4" class="st6" width="20" height="62"/>
<rect id="Rectangle-path_00000150073038161553545670000010693520246823753122_" x="508.4" y="473.4" class="st6" width="20" height="62"/>
<rect id="Rectangle-path_00000034072808398830330420000004091469588238088087_" x="524" y="473.4" class="st6" width="20" height="62"/>
<rect id="Rectangle-path_00000085240567801115591190000018091470233839782053_" x="539.8" y="473.4" class="st6" width="20" height="62"/>
<rect id="Rectangle-path_00000181809767826432818120000005227347232352184753_" x="555.4" y="473.4" class="st6" width="20" height="62"/>
<rect id="Rectangle-path_00000161601159190631713360000002441382601009154493_" x="571.2" y="473.4" class="st6" width="20" height="62"/>
<rect id="Rectangle-path_00000149350360336187643240000010367082200980353171_" x="586.8" y="473.4" class="st6" width="20" height="62"/>
<rect id="Rectangle-path_00000088818486013913569850000001868448296405226909_" x="602.4" y="473.4" class="st6" width="20" height="62"/>
<rect id="Rectangle-path_00000055699077709396277520000004709522726480347273_" x="618.2" y="473.4" class="st6" width="20" height="62"/>
<polygon id="Shape_00000025444032612876393520000005882311733059871421_" class="st6" points="636.2,535.4 633.8,535.4 633.8,473.4 
	644.4,473.4 644.4,533.8 "/>
<path id="Shape_00000166633985041555111150000017318748435985483187_" class="st6" d="M660,473.4v50c-3,3.4-6.6,6.2-10.6,8.2v-58.2
	L660,473.4L660,473.4z"/>
<path id="Shape_00000025415744109311557690000006078088661558971270_" class="st6" d="M82.2,470.8c-7.9,0-15.3-4.2-19.2-11.1
	s-4-15.3,0-22.2s11.3-11.1,19.2-11.1s15.3,4.2,19.2,11.1s4,15.3,0,22.2S90.1,470.8,82.2,470.8z M64.4,535.4h46.4v-86.6
	c-1.2-14.9-13.7-26.4-28.7-26.4s-27.5,11.5-28.7,26.4V534L64.4,535.4z"/>
<path id="Shape_00000075146501031721648840000006489557104926780032_" class="st6" d="M228.8,428.8c-8.2-8.2-20.5-10.7-31.2-6.4
	c-10.7,4.4-17.8,14.8-18,26.4v86.8h57.6v-86.8C237.1,441.3,234.1,434.1,228.8,428.8z M208.8,471.2c-9.1,0.5-17.5-4.6-21.3-12.8
	c-3.8-8.2-2.3-17.9,3.9-24.6c6.2-6.6,15.8-8.8,24.3-5.5c8.4,3.3,14,11.4,14.1,20.5c-0.1,12.2-10,22-22.2,22L208.8,471.2z"/>
<path id="Shape_00000111189754643125748480000000237034494935572872_" class="st6" d="M368.8,428.8c-8.2-8.2-20.5-10.7-31.2-6.4
	c-10.7,4.4-17.8,14.8-18,26.4v86.8h57.6v-86.8C377.1,441.3,374.1,434.1,368.8,428.8z M348.8,470.8c-9,0-17.1-5.4-20.5-13.8
	c-3.4-8.3-1.5-17.9,4.9-24.2s16-8.2,24.3-4.7s13.6,11.7,13.6,20.7C370.9,461,361,470.8,348.8,470.8z"/>
<path id="Shape_00000059306164383262584910000003627575744127495068_" class="st6" d="M510.4,428.8c-8.2-8.2-20.5-10.7-31.2-6.4
	c-10.7,4.4-17.8,14.8-18,26.4v86.8h57.6v-86.8C518.7,441.3,515.7,434.1,510.4,428.8z M490.4,471.2c-12.3,0-22.2-9.9-22.2-22.2
	c0-12.3,9.9-22.2,22.2-22.2c12.3,0,22.2,9.9,22.2,22.2C512.6,461.3,502.7,471.2,490.4,471.2z"/>
<path id="Shape_00000013171580129456879240000009586654077431230904_" class="st6" d="M635.8,428.8c-8.2-8.1-20.4-10.5-31.1-6.1
	c-10.7,4.4-17.7,14.6-17.9,26.1v86.8h46.4l11-1.6v-85.2C644.1,441.3,641.1,434.1,635.8,428.8z M615.8,471.2
	c-9,0.2-17.2-5.1-20.8-13.4s-1.8-17.9,4.5-24.3s15.8-8.5,24.2-5.1c8.4,3.3,13.9,11.4,13.9,20.4c-0.1,12.2-10,22-22.2,22L615.8,471.2
	z"/>
<path id="_x30_" class="st12" d="M79.6,496.6c0,0.4,0,1,0,1.6s0.1,1.2,0.3,1.8s0.4,1.1,0.7,1.5c0.3,0.4,0.8,0.6,1.5,0.6
	s1.2-0.2,1.5-0.6s0.6-0.9,0.8-1.5c0.2-0.6,0.2-1.2,0.3-1.8s0-1.2,0-1.6c0-0.3,0-0.6,0-1s0-0.8-0.1-1.2c-0.1-0.4-0.1-0.8-0.2-1.2
	c-0.1-0.4-0.2-0.7-0.4-1.1c-0.2-0.3-0.4-0.6-0.7-0.8c-0.3-0.2-0.7-0.3-1.1-0.3s-0.8,0.1-1.1,0.3s-0.5,0.4-0.7,0.8
	c-0.2,0.3-0.3,0.7-0.4,1.1s-0.2,0.8-0.2,1.2c0,0.4-0.1,0.8-0.1,1.2C79.6,496,79.6,496.3,79.6,496.6z M76.5,496.6
	c0-1.5,0.2-2.8,0.5-3.8s0.7-1.9,1.2-2.5s1.1-1.1,1.8-1.3c0.7-0.3,1.4-0.4,2.2-0.4c0.8,0,1.5,0.1,2.2,0.4s1.3,0.7,1.8,1.3
	c0.5,0.6,0.9,1.4,1.2,2.5c0.3,1,0.5,2.3,0.5,3.8c0,1.6-0.2,2.9-0.5,3.9s-0.7,1.9-1.2,2.5s-1.1,1.1-1.8,1.3c-0.7,0.3-1.4,0.4-2.2,0.4
	c-0.8,0-1.5-0.1-2.2-0.4s-1.3-0.7-1.8-1.3c-0.5-0.6-0.9-1.5-1.2-2.5C76.6,499.4,76.5,498.1,76.5,496.6z"/>
<path id="A" class="st12" d="M94.7,364.7h4.1l-2-5.8l0,0L94.7,364.7z M95.1,354.9h3.6l5.9,15.9H101l-1.2-3.5h-5.9l-1.2,3.5h-3.5
	L95.1,354.9z"/>
<path id="B" class="st12" d="M596.4,156h3.5c0.6,0,1.1-0.1,1.5-0.4c0.4-0.3,0.6-0.8,0.6-1.4c0-0.4-0.1-0.7-0.2-0.9
	c-0.1-0.2-0.3-0.4-0.5-0.6c-0.2-0.1-0.5-0.2-0.8-0.3s-0.6-0.1-0.9-0.1h-3.3v3.7H596.4z M592.9,149.5h7.5c0.8,0,1.4,0.1,2.1,0.2
	c0.6,0.1,1.2,0.4,1.6,0.7c0.4,0.3,0.8,0.7,1,1.2s0.4,1.1,0.4,1.9c0,0.8-0.2,1.5-0.5,2c-0.4,0.5-0.9,1-1.6,1.3c1,0.3,1.7,0.8,2.2,1.5
	s0.7,1.6,0.7,2.5c0,0.8-0.2,1.5-0.5,2.1s-0.7,1.1-1.3,1.4s-1.1,0.6-1.8,0.8s-1.4,0.3-2.1,0.3h-7.7L592.9,149.5L592.9,149.5z
	 M596.4,162.7h3.7c0.3,0,0.7,0,1-0.1s0.6-0.2,0.8-0.3c0.2-0.2,0.4-0.4,0.6-0.6s0.2-0.6,0.2-1c0-0.8-0.2-1.4-0.7-1.7
	s-1.1-0.5-1.8-0.5h-3.8V162.7z"/>
<path id="_x31_" class="st12" d="M209.1,504.4h-3.2v-10.1H202v-2.4c0.5,0,1.1,0,1.6-0.1s1-0.3,1.4-0.5s0.8-0.6,1-1s0.5-0.9,0.6-1.5
	h2.5V504.4z"/>
<path id="_x32_" class="st12" d="M343.6,494.8c0-0.9,0.1-1.7,0.3-2.5c0.2-0.8,0.6-1.4,1.1-2s1.1-1,1.8-1.3c0.7-0.3,1.5-0.5,2.5-0.5
	c0.7,0,1.4,0.1,2,0.3s1.2,0.5,1.7,1c0.5,0.4,0.9,0.9,1.2,1.5s0.4,1.3,0.4,2c0,0.8-0.1,1.5-0.4,2c-0.3,0.6-0.6,1.1-1,1.5
	s-0.9,0.8-1.4,1.2c-0.5,0.4-1.1,0.7-1.6,1.1c-0.5,0.3-1.1,0.7-1.6,1.1s-0.9,0.9-1.3,1.4h7.3v2.7h-11.4c0-0.9,0.1-1.7,0.4-2.4
	c0.3-0.7,0.6-1.3,1.1-1.8s1-1,1.6-1.5c0.6-0.4,1.2-0.9,1.9-1.4c0.3-0.2,0.7-0.5,1.1-0.7s0.7-0.5,1.1-0.8c0.3-0.3,0.6-0.6,0.8-1
	c0.2-0.4,0.3-0.8,0.3-1.3c0-0.8-0.2-1.3-0.7-1.8c-0.4-0.4-1-0.6-1.7-0.6c-0.5,0-0.8,0.1-1.2,0.3c-0.3,0.2-0.6,0.5-0.8,0.8
	c-0.2,0.3-0.3,0.7-0.4,1.2c-0.1,0.4-0.1,0.8-0.1,1.3h-3V494.8z"/>
<path id="_x33_v" class="st12" d="M484.3,495.1c0.3,0,0.7,0,1.1,0s0.7-0.1,1.1-0.3c0.3-0.1,0.6-0.3,0.8-0.6c0.2-0.3,0.3-0.6,0.3-1.1
	c0-0.7-0.2-1.2-0.7-1.5c-0.4-0.4-1-0.5-1.5-0.5c-0.8,0-1.4,0.3-1.8,0.8s-0.6,1.2-0.6,2h-3c0-0.8,0.2-1.5,0.4-2.2
	c0.3-0.7,0.6-1.2,1.1-1.7s1-0.8,1.7-1.1c0.7-0.3,1.4-0.4,2.2-0.4c0.6,0,1.2,0.1,1.9,0.3c0.6,0.2,1.2,0.5,1.7,0.8
	c0.5,0.4,0.9,0.8,1.2,1.4c0.3,0.5,0.5,1.1,0.5,1.8c0,0.8-0.2,1.4-0.5,2c-0.4,0.6-0.9,1-1.6,1.2l0,0c0.9,0.2,1.5,0.6,2,1.2
	s0.7,1.4,0.7,2.3c0,0.8-0.2,1.5-0.5,2.2c-0.3,0.6-0.7,1.2-1.3,1.6s-1.1,0.8-1.8,1c-0.7,0.2-1.4,0.3-2.2,0.3c-0.9,0-1.7-0.1-2.4-0.4
	c-0.7-0.3-1.3-0.6-1.8-1.1s-0.9-1.1-1.2-1.8c-0.3-0.7-0.4-1.5-0.4-2.4h3c0,0.4,0.1,0.8,0.2,1.2c0.1,0.4,0.3,0.7,0.5,1
	s0.5,0.5,0.8,0.7s0.7,0.2,1.2,0.2c0.7,0,1.3-0.2,1.8-0.7s0.7-1,0.7-1.8c0-0.6-0.1-1-0.3-1.4c-0.2-0.3-0.5-0.5-0.9-0.7
	s-0.7-0.2-1.2-0.2c-0.4,0-0.8,0-1.2,0L484.3,495.1L484.3,495.1z M499.1,504.4h-3.5l-3.9-11.5h3.3l2.4,7.8l0,0l2.4-7.8h3.1
	L499.1,504.4z"/>
<path id="GND" class="st12" d="M603.6,502.6c-0.6,0.8-1.3,1.4-2.1,1.7c-0.8,0.3-1.5,0.5-2.3,0.5c-1.2,0-2.3-0.2-3.3-0.6
	s-1.8-1-2.5-1.7s-1.2-1.6-1.5-2.6c-0.4-1-0.5-2.1-0.5-3.2c0-1.2,0.2-2.3,0.5-3.3c0.4-1,0.9-1.9,1.5-2.7c0.7-0.8,1.5-1.3,2.5-1.8
	c1-0.4,2.1-0.6,3.3-0.6c0.8,0,1.6,0.1,2.4,0.4c0.8,0.2,1.5,0.6,2.1,1.1s1.1,1.1,1.5,1.8c0.4,0.7,0.6,1.5,0.7,2.4h-3.3
	c-0.2-0.9-0.6-1.6-1.2-2c-0.6-0.4-1.3-0.7-2.2-0.7c-0.8,0-1.5,0.2-2,0.5s-1,0.7-1.3,1.2s-0.6,1.1-0.7,1.7c-0.2,0.7-0.2,1.3-0.2,2
	s0.1,1.3,0.2,1.9c0.2,0.6,0.4,1.2,0.7,1.7s0.8,0.9,1.3,1.2c0.5,0.3,1.2,0.5,2,0.5c1.2,0,2-0.3,2.7-0.9c0.6-0.6,1-1.4,1.1-2.5h-3.5
	V496h6.7v8.6H604L603.6,502.6z M609,488.5h3.5l6.6,10.6l0,0v-10.6h3.3v15.9h-3.5l-6.6-10.6l0,0v10.6H609V488.5z M628.9,501.5h3.1
	c0.5,0,1-0.1,1.5-0.2s0.9-0.4,1.3-0.8s0.7-0.9,0.9-1.5s0.3-1.3,0.3-2.2c0-0.8-0.1-1.5-0.2-2.2s-0.4-1.2-0.8-1.7
	c-0.4-0.5-0.8-0.8-1.4-1.1c-0.6-0.2-1.3-0.4-2.2-0.4h-2.5L628.9,501.5L628.9,501.5z M625.4,488.5h6.8c1,0,2,0.2,2.9,0.5
	s1.6,0.8,2.3,1.5c0.6,0.7,1.1,1.5,1.5,2.4c0.4,1,0.5,2.1,0.5,3.4c0,1.2-0.1,2.2-0.4,3.2c-0.3,1-0.7,1.8-1.3,2.5s-1.3,1.3-2.2,1.7
	c-0.9,0.4-1.9,0.6-3.2,0.6h-6.8L625.4,488.5L625.4,488.5z"/>
</svg>