<?xml version="1.0" encoding="utf-8"?>
<!-- Generator: Adobe Illustrator 26.6.0, SVG Export Plug-In . SVG Version: 6.00 Build 0)  -->
<svg version="1.1" id="Layer_1" xmlns="http://www.w3.org/2000/svg" xmlns:xlink="http://www.w3.org/1999/xlink" x="0px" y="0px"
	 viewBox="0 0 1080 1080" style="enable-background:new 0 0 1080 1080;" xml:space="preserve">
<style type="text/css">
	.st0{fill:#5E3C1A;}
	.st1{fill:#77491E;}
	.st2{fill:#FFE38C;}
	.st3{fill:#FCEBC3;}
	.st4{fill:#6F471C;}
	.st5{fill:#FFFFFF;}
	.st6{fill:url(#left-eye-ball_00000026154582986373581920000004030971748487541431_);}
	.st7{fill:none;stroke:#000000;stroke-miterlimit:10;}
	.st8{fill:url(#right-eye-ball_00000148618910360564770090000007582154007675865778_);}
</style>
<g id="cheekyMonkeyGroup">
	<ellipse id="back-body" class="st0" cx="543" cy="665.91" rx="211.81" ry="261.8"/>
	<path id="left-leg" class="st0" d="M522.15,762.14l-21.55-24.95c-17.07-19.6-46.8-21.65-66.39-4.58c0,0-0.01,0.01-0.01,0.01
		L300.6,848.97c-17.18,11.16-25.93,31.58-22.15,51.71v76.58h-27.84c-19.35,0-35.04,15.69-35.04,35.04l0,0v11.16
		c0,19.35,15.69,35.04,35.04,35.04l0,0h104.55c14.15,0.02,26.93-8.48,32.36-21.55c11.44-8.89,18.14-22.57,18.14-37.06v-73.26
		l112.05-97.74c19.65-17.01,21.78-46.74,4.76-66.38C522.36,762.39,522.26,762.26,522.15,762.14z"/>
	<path id="right-leg" class="st0" d="M585.15,777.82l12.28-14.14c19.69-22.58,53.95-24.94,76.54-5.26l129.97,113.25
		c7.16,6.26,12.55,14.3,15.6,23.31c3.19,6.98,4.83,14.56,4.83,22.24v81.41h22.5c22.3,0.02,40.36,18.12,40.34,40.42
		c-0.02,22.27-18.07,40.32-40.34,40.34h-93.86c-16.42,0.01-31.2-9.92-37.41-25.12c-11.72-10.27-18.44-25.1-18.44-40.68v-66.32
		l-106.75-93.04C567.91,834.56,565.56,800.39,585.15,777.82z"/>
	<g id="right-hand">
		<path id="right-hand-2" class="st1" d="M863.42,706.94l-9.69,9.56c-20.04,19.77-52.32,19.55-72.1-0.49L621.56,553.75
			c-19.77-20.04-19.55-52.32,0.49-72.1l9.69-9.56c20.04-19.77,52.32-19.55,72.1,0.49l160.07,162.26
			C883.68,654.89,883.46,687.16,863.42,706.94z"/>
		<path id="right-fingers" class="st1" d="M939.39,816.05l-37.21,36.71c-11,10.85-28.7,10.73-39.55-0.27l-3.48-3.53
			c-10.85-11-10.73-28.7,0.27-39.55l37.21-36.71c11-10.85,28.7-10.73,39.55,0.27l3.48,3.53C950.5,787.5,950.38,805.21,939.39,816.05
			z"/>
		<path id="right-palm" class="st2" d="M839.67,743.78l-32.67-33.1c-13.83-14.01-15.69-34.48-4.09-46.07l9.39-9.27
			c11.59-11.42,32.15-9.31,45.98,4.7l32.67,33.14c14.74-0.37,28.95,5.53,39.09,16.25l24.09,24.43c18.75,19,21.25,46.97,5.56,62.44
			l-17.84,17.58l-28.4,28.01l-33.96-34.48l-21.07-20.99l-3.19-3.28C844.66,772.86,839,758.53,839.67,743.78z"/>
	</g>
	<g id="back-hand">
		<path class="st1" d="M446.06,449.9l24.42,24.09c14.59,14.39,14.75,37.88,0.36,52.47l-87.19,88.39
			c-14.39,14.59-37.88,14.75-52.47,0.36l-24.42-24.09c-14.59-14.39-14.75-37.88-0.36-52.47l87.19-88.39
			C407.98,435.66,431.47,435.51,446.06,449.9z"/>
	</g>
	<ellipse id="body" class="st3" cx="541.15" cy="659.01" rx="133.72" ry="198.19"/>
	<g id="faceGroup">
		<g id="ears">
			<g id="left-ear">
				<ellipse class="st4" cx="329.25" cy="209.14" rx="86.75" ry="101.58"/>
				
					<ellipse transform="matrix(0.8237 -0.567 0.567 0.8237 -73.8332 221.5794)" class="st2" cx="319.45" cy="229.53" rx="52.66" ry="69.77"/>
			</g>
			<g id="right-ear">
				<ellipse class="st4" cx="752.88" cy="209.14" rx="86.75" ry="101.58"/>
				
					<ellipse transform="matrix(0.567 -0.8237 0.8237 0.567 141.1873 727.6407)" class="st2" cx="762.69" cy="229.53" rx="69.77" ry="52.66"/>
			</g>
		</g>
		<path id="hair" class="st4" d="M752.83,242.58c0-87.18-57.06-161.43-137.13-190.01l12.41-28.87l-23.57,9.39l13.57-31.59
			L517.54,41.63c-103.9,12.11-184.4,97.44-184.4,200.95c0.04,43.51,14.5,85.78,41.11,120.19c-4.3,8.05-6.6,17.03-6.68,26.16
			c0,53.95,81.67,97.7,182.42,97.7s182.38-43.74,182.38-97.7c-0.21-13.21-4.75-25.99-12.93-36.37
			C741.29,320.05,752.92,281.75,752.83,242.58z"/>
		<path id="face" class="st2" d="M729.52,253.79c0-67.36-45.38-121.96-101.4-121.96c-33.4,0-63.05,19.48-81.54,49.47
			c-18.57-26.46-46.41-43.31-77.57-43.31c-56.02,0-101.4,54.6-101.4,121.96c-0.33,30.18,9.4,59.62,27.67,83.65
			c-6.33,11.77-9.68,24.91-9.74,38.27c0,62.14,73.52,112.48,164.24,112.48s164.24-50.33,164.24-112.48
			c-0.14-15.47-4.62-30.6-12.93-43.66C719.81,314.08,729.83,284.33,729.52,253.79z"/>
		<g id="mouth">
			<g id="happy-mouth">
				<path class="st4" d="M644.41,368.68c-8.81,0.02-15.95,7.17-15.95,15.99c0.03,0.68,0.1,1.36,0.22,2.03
					c-43.82,42.91-114.13,42.18-157.05-1.64c-0.1-0.1-0.19-0.2-0.29-0.3c2.12-8.55-3.09-17.19-11.64-19.31
					c-8.55-2.12-17.19,3.09-19.31,11.64c-2.12,8.55,3.09,17.19,11.64,19.31c1.23,0.3,2.49,0.46,3.76,0.47
					c49.38,52.59,132.05,55.18,184.63,5.8c0.78-0.73,1.55-1.47,2.31-2.22c0.56,0,1.12,0,1.68,0c8.82,0.46,16.34-6.32,16.8-15.14
					c0.46-8.82-6.32-16.34-15.14-16.8c-0.55-0.03-1.11-0.03-1.66,0V368.68z"/>
			</g>
		</g>
		<g id="left-eye">
			<g id="left-whitearea">
				<ellipse id="left-eye-lash" cx="456.69" cy="268.53" rx="56.37" ry="75.11"/>
				<ellipse id="left-eye-white" class="st5" cx="456.69" cy="274.95" rx="56.37" ry="75.11"/>
			</g>
			<rect id="left-eyeBrows" x="414.28" y="174.97" width="86.19" height="8.62"/>
			<g id="left-normaleye">
				
					<linearGradient id="left-eye-ball_00000150068967393053917800000018220508737155821483_" gradientUnits="userSpaceOnUse" x1="426.519" y1="812.1367" x2="486.852" y2="812.1367" gradientTransform="matrix(1 0 0 -1 0 1082)">
					<stop  offset="0" style="stop-color:#FFFFFF"/>
					<stop  offset="0" style="stop-color:#0589AA"/>
					<stop  offset="0.99" style="stop-color:#0F5BA9"/>
					<stop  offset="1" style="stop-color:#3C3C3C"/>
					<stop  offset="1" style="stop-color:#038BAA"/>
					<stop  offset="1" style="stop-color:#384C9F"/>
					<stop  offset="1" style="stop-color:#6F471C"/>
				</linearGradient>
				
					<ellipse id="left-eye-ball" style="fill:url(#left-eye-ball_00000150068967393053917800000018220508737155821483_);" cx="456.69" cy="269.86" rx="30.17" ry="41.33"/>
				<ellipse id="left-inner-eye-ball" cx="456.69" cy="271.11" rx="21.33" ry="28.49"/>
				<circle id="left-b-white-circle" class="st5" cx="459.23" cy="245.73" r="10.77"/>
				<circle id="left-white-circle" class="st5" cx="470" cy="282.1" r="3.84"/>
			</g>
			<g id="left-deadEye">
				<ellipse class="st7" cx="457.03" cy="271.54" rx="30.04" ry="41.2"/>
				<ellipse class="st7" cx="457.03" cy="272.79" rx="21.25" ry="28.4"/>
				<ellipse class="st7" cx="457.03" cy="272.79" rx="11.68" ry="15.6"/>
				<ellipse class="st7" cx="457.03" cy="272.79" rx="6.42" ry="8.58"/>
			</g>
		</g>
		<g id="right-eye">
			<g id="right-whitearea">
				<ellipse id="right-eye-lash" cx="634.58" cy="268.53" rx="56.37" ry="75.11"/>
				<ellipse id="right-eye-white" class="st5" cx="634.58" cy="274.95" rx="56.37" ry="75.11"/>
			</g>
			<g id="right-normaleye">
				
					<linearGradient id="right-eye-ball_00000104684638473940088400000000177798421604998536_" gradientUnits="userSpaceOnUse" x1="604.4153" y1="812.1367" x2="664.7484" y2="812.1367" gradientTransform="matrix(1 0 0 -1 0 1082)">
					<stop  offset="0" style="stop-color:#FFFFFF"/>
					<stop  offset="0" style="stop-color:#0589AA"/>
					<stop  offset="0.99" style="stop-color:#0F5BA9"/>
					<stop  offset="1" style="stop-color:#3C3C3C"/>
					<stop  offset="1" style="stop-color:#038BAA"/>
					<stop  offset="1" style="stop-color:#384C9F"/>
					<stop  offset="1" style="stop-color:#6F471C"/>
				</linearGradient>
				
					<ellipse id="right-eye-ball" style="fill:url(#right-eye-ball_00000104684638473940088400000000177798421604998536_);" cx="634.58" cy="269.86" rx="30.17" ry="41.33"/>
				<ellipse id="right-inner-eye-ball" cx="634.58" cy="271.11" rx="21.33" ry="28.49"/>
				<circle id="right-b-white-circle" class="st5" cx="637.08" cy="245.73" r="10.77"/>
				<circle id="right-white-circle" class="st5" cx="647.86" cy="282.1" r="3.84"/>
			</g>
			<rect id="right-eyeBrows" x="601.57" y="174.28" width="86.19" height="8.62"/>
			<g id="right-deadEye">
				<ellipse class="st7" cx="632.99" cy="271.11" rx="30.04" ry="41.2"/>
				<ellipse class="st7" cx="632.99" cy="272.32" rx="21.25" ry="28.4"/>
				<ellipse class="st7" cx="632.99" cy="272.32" rx="11.68" ry="15.6"/>
				<ellipse class="st7" cx="632.99" cy="272.32" rx="6.42" ry="8.58"/>
			</g>
		</g>
		<g id="cheeks">
			<g id="nose">
				<g id="nose-2">
					<path class="st4" d="M586.88,349.46c-2.2-12.93-10.08-22.32-19.57-22.32s-17.24,9.52-19.52,22.32H586.88z"/>
					<path class="st4" d="M551.88,349.46c-2.15-12.93-10.04-22.32-19.52-22.32s-17.24,9.52-19.52,22.32H551.88z"/>
					<path class="st2" d="M586.88,352.99c-2.2-12.93-10.08-22.32-19.57-22.32s-17.24,9.52-19.52,22.32H586.88z"/>
					<path class="st2" d="M551.88,352.99c-2.15-12.93-10.04-22.32-19.52-22.32s-17.24,9.52-19.52,22.32H551.88z"/>
				</g>
				<g id="nose-hole">
					<ellipse class="st4" cx="534.39" cy="339.94" rx="6.72" ry="3.36"/>
				</g>
				<ellipse class="st4" cx="564.6" cy="339.94" rx="6.72" ry="3.36"/>
			</g>
			<g id="right-cheek">
				<path class="st4" d="M628.12,321.79c-27.8,0-51.71,12.63-63.69,31.03h127.39C680.22,334.42,655.96,321.79,628.12,321.79z"/>
				<path class="st2" d="M628.12,326.36c-27.8,0-51.71,12.63-63.69,31.03h127.39C680.22,338.99,655.96,326.36,628.12,326.36z"/>
			</g>
			<g id="left-cheek">
				<path class="st4" d="M469.05,321.79c-27.8,0-51.71,12.63-63.69,31.03h127.39C520.77,334.42,496.89,321.79,469.05,321.79z"/>
				<path class="st2" d="M469.05,326.36c-27.8,0-51.71,12.63-63.69,31.03h127.39C520.77,338.99,496.89,326.36,469.05,326.36z"/>
			</g>
		</g>
	</g>
	<g id="bend-lower-hand">
		<g id="bend-lower-hand-2">
			<path id="hand" class="st1" d="M378.39,514.81l24.91,23.59c14.88,14.09,15.52,37.58,1.43,52.45l-92.07,97.22
				c-14.09,14.88-37.58,15.52-52.45,1.43l-24.91-23.59c-14.88-14.09-15.52-37.58-1.43-52.45l92.07-97.22
				C340.03,501.36,363.51,500.72,378.39,514.81z"/>
			<path id="left-fingers" class="st1" d="M181.98,761.81l36.19,37.72c10.69,11.15,10.33,28.85-0.82,39.55l-3.58,3.43
				c-11.15,10.69-28.85,10.33-39.55-0.82l-36.19-37.72c-10.69-11.15-10.33-28.85,0.82-39.55l3.58-3.43
				C153.58,750.29,171.29,750.66,181.98,761.81z"/>
			<path id="left-palm" class="st2" d="M240.05,734.38l33.53-32.19c14.22-13.62,16.63-34.22,5.39-45.94l-9.18-9.52
				c-11.25-11.72-31.89-10.17-46.11,3.45l-33.53,32.19c-14.73-0.74-29.08,4.79-39.52,15.21l-24.74,23.75
				c-19.26,18.49-22.54,46.37-7.28,62.27l17.24,18.06l27.62,28.79l34.91-33.48l21.55-20.56l3.32-3.19
				C234.07,763.22,240.18,749.12,240.05,734.38z"/>
		</g>
	</g>
</g>
<g>
</g>
<g>
</g>
<g>
</g>
<g>
</g>
<g>
</g>
<g>
</g>
<g>
</g>
<g>
</g>
<g>
</g>
<g>
</g>
<g>
</g>
<g>
</g>
<g>
</g>
<g>
</g>
<g>
</g>
</svg>
