<svg version="1.1" id="Layer_1" xmlns="http://www.w3.org/2000/svg" xmlns:xlink="http://www.w3.org/1999/xlink" x="0px" y="0px"
	 viewBox="0 0 28 28" style="enable-background:new 0 0 28 28;" xml:space="preserve">
<path d="M5.4,23c3.6,3.6,8.1,4.7,10.3,4.9c0.9,0.1,1.4-0.3,1.4-1c0.1-0.6-0.3-1.1-1.1-1.3c-1.9-0.3-6-1.3-9-4.3
	C2.1,16.5,1.1,8.8,5.2,4.7C8.5,1.5,13.9,1.8,17.9,4l1.7-1.7c-5.1-3.1-12-3.2-16,0.8C-1.2,7.9-0.7,16.9,5.4,23z M25.1,4.3l1.1-1.1
	c0.6-0.6,0.6-1.4,0.1-2l-0.4-0.4C25.3,0.4,24.5,0.4,24,1l-1.1,1.1L25.1,4.3z M12.4,16.9L24.1,5.3L21.9,3L10.2,14.7l-1.1,2.7
	C9,17.8,9.3,18.1,9.7,18L12.4,16.9z M10.3,19.1c4.1,4.3,11.2,5.9,15.1,2c3.2-3.2,2.9-8.8-0.6-13.6l-1.7,1.7c2.5,3.7,3,7.9,0.6,10.4
	c-3,3-7.8,1.6-11-1.4L10.3,19.1z"/>
</svg>