<?xml version="1.0" encoding="utf-8"?>
<!-- Generator: Adobe Illustrator 26.6.0, SVG Export Plug-In . SVG Version: 6.00 Build 0)  -->
<svg version="1.1" id="Layer_1" xmlns="http://www.w3.org/2000/svg" xmlns:xlink="http://www.w3.org/1999/xlink" x="0px" y="0px"
	 viewBox="0 0 28 28" style="enable-background:new 0 0 28 28;" xml:space="preserve">
<path d="M0.3,20.2c0,2.5,1.3,3.8,3.8,3.8h2.3c0.5,0.4,1.1,0.8,2,1.1L6.5,26c-1,0.4-0.9,2,0.5,2h14c1.4,0,1.5-1.6,0.5-2l-1.9-0.9
	c0.8-0.3,1.5-0.6,2-1.1h2.3c2.5,0,3.8-1.3,3.8-3.8V3.8c0-2.6-1.3-3.8-3.8-3.8H4.1C1.6,0,0.3,1.3,0.3,3.8V20.2z M3,18.2V4
	c0-0.9,0.4-1.3,1.3-1.3h19.3C24.6,2.7,25,3.1,25,4v14.2c0,1-0.4,1.3-1.3,1.3H4.3C3.4,19.5,3,19.2,3,18.2z M8.3,8.4
	c0,0.9,0.4,1.7,0.9,2.1c0.1,0.1,0.3,0.2,0.4,0.2c0.3,0,0.5-0.2,0.5-0.5c0-0.2-0.1-0.3-0.2-0.4C9.4,9.4,9.2,8.9,9.2,8.4
	c0-0.5,0.2-0.9,0.6-1.3C9.9,6.9,10,6.8,10,6.6c0-0.3-0.2-0.5-0.5-0.5c-0.2,0-0.3,0.1-0.4,0.2C8.6,6.8,8.3,7.6,8.3,8.4z M6.6,8
	C7,8,7.3,7.6,7.3,7.3c0-0.4-0.3-0.8-0.7-0.8c-0.4,0-0.7,0.3-0.7,0.8C5.9,7.6,6.2,8,6.6,8z M6.6,10.5c0.4,0,0.7-0.3,0.7-0.7
	S7,9,6.6,9C6.2,9,5.9,9.4,5.9,9.8S6.2,10.5,6.6,10.5z M6.4,13.6h9.1c0.3,0,0.6-0.2,0.6-0.6c0-0.3-0.2-0.5-0.6-0.5H6.4
	c-0.3,0-0.6,0.2-0.6,0.5C5.9,13.4,6.1,13.6,6.4,13.6z M6.4,16h6.5c0.3,0,0.6-0.2,0.6-0.6c0-0.3-0.2-0.6-0.6-0.6H6.4
	c-0.3,0-0.6,0.2-0.6,0.6C5.9,15.8,6.1,16,6.4,16z M21.6,22.6c-0.5,0-1-0.4-1-1c0-0.5,0.4-1,1-1c0.5,0,1,0.4,1,1
	C22.5,22.2,22.1,22.6,21.6,22.6z"/>
</svg>
