<?xml version="1.0" encoding="utf-8"?>
<!-- Generator: Adobe Illustrator 26.6.0, SVG Export Plug-In . SVG Version: 6.00 Build 0)  -->
<svg version="1.1" id="Layer_1" xmlns="http://www.w3.org/2000/svg" xmlns:xlink="http://www.w3.org/1999/xlink" x="0px" y="0px"
	 viewBox="0 0 28 28" style="enable-background:new 0 0 28 28;" xml:space="preserve">
<path d="M14,6.1c0.6,0,1.1-0.5,1.1-1.1c0-0.6-0.5-1.1-1.1-1.1c-0.6,0-1.1,0.5-1.1,1.1C12.9,5.6,13.4,6.1,14,6.1z M7.9,9.8
	C8.5,9.8,9,9.3,9,8.6C9,8,8.5,7.5,7.9,7.5C7.2,7.5,6.7,8,6.7,8.6C6.7,9.3,7.2,9.8,7.9,9.8z M20.1,9.8c0.6,0,1.1-0.5,1.1-1.1
	c0-0.6-0.5-1.1-1.1-1.1C19.5,7.5,19,8,19,8.6C19,9.3,19.5,9.8,20.1,9.8z M14,10.2c0.6,0,1.1-0.5,1.1-1.1c0-0.6-0.5-1.1-1.1-1.1
	s-1.1,0.5-1.1,1.1C12.9,9.7,13.4,10.2,14,10.2z M6.2,13.8c0.6,0,1.1-0.5,1.1-1.1c0-0.6-0.5-1.1-1.1-1.1C5.5,11.5,5,12,5,12.6
	C5,13.3,5.5,13.8,6.2,13.8z M21.8,13.8c0.6,0,1.1-0.5,1.1-1.1c0-0.6-0.5-1.1-1.1-1.1c-0.6,0-1.1,0.5-1.1,1.1
	C20.7,13.3,21.2,13.8,21.8,13.8z M14,14.3c0.6,0,1.1-0.5,1.1-1.1c0-0.6-0.5-1.1-1.1-1.1c-0.6,0-1.1,0.5-1.1,1.1
	C12.9,13.8,13.4,14.3,14,14.3z M6.8,18C7.5,18,8,17.5,8,16.8c0-0.6-0.5-1.1-1.1-1.1c-0.6,0-1.1,0.5-1.1,1.1C5.7,17.5,6.2,18,6.8,18z
	 M21.2,18c0.6,0,1.1-0.5,1.1-1.2c0-0.6-0.5-1.1-1.1-1.1c-0.6,0-1.1,0.5-1.1,1.1C20,17.5,20.5,18,21.2,18z M9.7,21.4
	c0.6,0,1.1-0.5,1.1-1.1c0-0.6-0.5-1.1-1.1-1.1c-0.6,0-1.1,0.5-1.1,1.1C8.5,20.9,9.1,21.4,9.7,21.4z M18.3,21.4
	c0.6,0,1.1-0.5,1.1-1.1c0-0.6-0.5-1.1-1.1-1.1c-0.6,0-1.1,0.5-1.1,1.1C17.2,20.9,17.7,21.4,18.3,21.4z M14,22.7
	c0.6,0,1.1-0.5,1.1-1.1c0-0.6-0.5-1.1-1.1-1.1s-1.1,0.5-1.1,1.1C12.9,22.2,13.4,22.7,14,22.7z"/>
</svg>
