<svg version="1.1" id="Layer_1" xmlns="http://www.w3.org/2000/svg" xmlns:xlink="http://www.w3.org/1999/xlink" x="0px" y="0px"
	 viewBox="0 0 28 28" style="enable-background:new 0 0 28 28;" xml:space="preserve">
<path d="M0,18.8c0,0.6,0.2,1,0.7,1.2c1.3,0.6,2,1.3,2.7,2.8c0.2,0.5,0.6,0.7,1.2,0.7h18.8c0.5,0,0.9-0.2,1.2-0.7
	c0.7-1.5,1.4-2.2,2.7-2.8c0.5-0.2,0.7-0.6,0.7-1.2V8.5c0-0.6-0.2-1-0.7-1.2c-1.3-0.6-2-1.3-2.7-2.8c-0.2-0.5-0.6-0.7-1.2-0.7H4.6
	C4.1,3.8,3.7,4,3.4,4.5C2.7,6,2,6.7,0.7,7.3C0.2,7.5,0,7.9,0,8.5V18.8z M2.2,18.5V8.9C3.5,8.3,4.4,7.4,5.1,6h17.9
	c0.6,1.4,1.5,2.3,2.8,2.9v9.6c-1.3,0.5-2.2,1.4-2.8,2.9H5.1C4.4,19.9,3.5,19,2.2,18.5z M5.2,18.5c0,0.6,0.4,1,1,1h15.6
	c0.6,0,1-0.4,1-1V8.8c0-0.6-0.4-1-1-1H6.2c-0.6,0-1,0.4-1,1V18.5z M6.6,11.2V9.5c0-0.1,0.1-0.2,0.2-0.2H8v2H6.6z M20,11.2v-2h1.1
	c0.1,0,0.2,0.1,0.2,0.2v1.7H20z M9.4,18.1V9.3h9.2v8.8H9.4z M6.6,14.7v-2H8v2H6.6z M20,14.7v-2h1.3v2H20z M20,18.1v-2h1.3v1.8
	c0,0.1-0.1,0.2-0.2,0.2H20z M6.6,17.8v-1.7H8v2H6.8C6.7,18.1,6.6,18,6.6,17.8z"/>
</svg>