<?xml version="1.0" encoding="utf-8"?>
<!-- Generator: Adobe Illustrator 26.6.0, SVG Export Plug-In . SVG Version: 6.00 Build 0)  -->
<svg version="1.1" id="Layer_1" xmlns="http://www.w3.org/2000/svg" xmlns:xlink="http://www.w3.org/1999/xlink" x="0px" y="0px"
	 viewBox="0 0 28 28" style="enable-background:new 0 0 28 28;" xml:space="preserve">
<path d="M1.5,2.9l3.2,2.7c0.2,0.2,0.5,0.3,0.7,0.3c0.2,0,0.5-0.1,0.7-0.3l3.2-2.7C10.3,2,9.1,0.5,8,1.5L5.4,3.8L2.8,1.5
	C1.7,0.5,0.5,2,1.5,2.9z M3.7,26.8h20.6c2.4,0,3.7-1.3,3.7-3.7V11.3c0-2.4-1.3-3.7-3.7-3.7h-3c-0.9,0-1.2-0.1-1.7-0.7l-0.9-1
	C18.1,5.3,17.5,5,16.3,5h-4.6c-1.2,0-1.8,0.3-2.3,0.9l-0.9,1C7.9,7.4,7.6,7.6,6.7,7.6h-3C1.3,7.6,0,8.9,0,11.3v11.9
	C0,25.6,1.3,26.8,3.7,26.8z M14,23.3c-3.4,0-6.1-2.7-6.1-6.1c0-3.4,2.7-6.1,6.1-6.1s6.1,2.7,6.1,6.1C20.1,20.6,17.4,23.3,14,23.3z
	 M20.9,13c0-0.8,0.7-1.5,1.5-1.5c0.8,0,1.5,0.7,1.5,1.5c0,0.8-0.7,1.5-1.5,1.5C21.5,14.5,20.9,13.8,20.9,13z M14,21.3
	c2.3,0,4.1-1.8,4.1-4.1c0-2.3-1.8-4.1-4.1-4.1s-4.1,1.8-4.1,4.1C9.9,19.5,11.7,21.3,14,21.3z"/>
</svg>
