<svg id="Background" xmlns="http://www.w3.org/2000/svg" viewBox="0 0 2667.57 2000">
  <rect y="19.21" width="2667.57" height="792.51" fill="#d7df23" stroke="#d7df23" stroke-miterlimit="10" stroke-width="30"/>
  <g id="floor">
    <rect id="floor_background" y="828.06" width="2667.57" height="1171.94" fill="#ff9d8a"/>
    <g id="floor_lines_2">
      <g>
        <g>
          <line x1="2119.9" y1="832.7" x2="949.51" y2="2003.08" fill="none" stroke="#ed1c24" stroke-miterlimit="10" stroke-width="5"/>
          <line x1="1918.98" y1="828.84" x2="748.6" y2="1999.22" fill="none" stroke="#ed1c24" stroke-miterlimit="10" stroke-width="5"/>
          <line x1="1707.16" y1="829.99" x2="536.78" y2="2000.37" fill="none" stroke="#ed1c24" stroke-miterlimit="10" stroke-width="5"/>
          <line x1="1506.25" y1="826.14" x2="335.86" y2="1996.52" fill="none" stroke="#ed1c24" stroke-miterlimit="10" stroke-width="5"/>
        </g>
        <g>
          <line x1="2667.57" y1="1086.39" x2="1735.62" y2="2018.34" fill="none" stroke="#ed1c24" stroke-miterlimit="10" stroke-width="5"/>
          <line x1="2667.57" y1="881.62" x2="1534.71" y2="2014.49" fill="none" stroke="#ed1c24" stroke-miterlimit="10" stroke-width="5"/>
          <line x1="2513.45" y1="825.08" x2="1322.89" y2="2015.64" fill="none" stroke="#ed1c24" stroke-miterlimit="10" stroke-width="5"/>
          <line x1="2308.31" y1="825.44" x2="1137.93" y2="1995.83" fill="none" stroke="#ed1c24" stroke-miterlimit="10" stroke-width="5"/>
        </g>
      </g>
      <g>
        <line x1="2667.57" y1="1907.22" x2="2553.17" y2="2021.62" fill="none" stroke="#ed1c24" stroke-miterlimit="10" stroke-width="5"/>
        <line x1="2667.57" y1="1702.44" x2="2352.25" y2="2017.77" fill="none" stroke="#ed1c24" stroke-miterlimit="10" stroke-width="5"/>
        <line x1="2667.57" y1="1491.78" x2="2140.43" y2="2018.92" fill="none" stroke="#ed1c24" stroke-miterlimit="10" stroke-width="5"/>
        <line x1="2679.14" y1="1275.44" x2="1939.52" y2="2015.07" fill="none" stroke="#ed1c24" stroke-miterlimit="10" stroke-width="5"/>
      </g>
      <g>
        <line x1="1279.65" y1="833.27" x2="109.27" y2="2003.65" fill="none" stroke="#ed1c24" stroke-miterlimit="10" stroke-width="5"/>
        <line x1="1078.73" y1="829.42" y2="1908.15" fill="none" stroke="#ed1c24" stroke-miterlimit="10" stroke-width="5"/>
        <line x1="866.92" y1="830.57" x2="0.31" y2="1697.17" fill="none" stroke="#ed1c24" stroke-miterlimit="10" stroke-width="5"/>
        <line x1="666" y1="826.71" y2="1492.71" fill="none" stroke="#ed1c24" stroke-miterlimit="10" stroke-width="5"/>
      </g>
      <g>
        <line x1="473.01" y1="821.83" x2="-2.06" y2="1296.9" fill="none" stroke="#ed1c24" stroke-miterlimit="10" stroke-width="5"/>
        <line x1="262.01" y1="828.06" y2="1090.07" fill="none" stroke="#ed1c24" stroke-miterlimit="10" stroke-width="5"/>
        <line x1="51.34" y1="828.06" y2="879.41" fill="none" stroke="#ed1c24" stroke-miterlimit="10" stroke-width="5"/>
      </g>
    </g>
    <g id="floor_lines_1">
      <g>
        <line x1="7.61" y1="1173.45" x2="834.16" y2="2000" fill="none" stroke="#ed1c24" stroke-miterlimit="10" stroke-width="5"/>
        <line x1="3.76" y1="1374.37" x2="635.62" y2="2006.23" fill="none" stroke="#ed1c24" stroke-miterlimit="10" stroke-width="5"/>
        <line x1="4.91" y1="1586.18" x2="424.07" y2="2005.35" fill="none" stroke="#ed1c24" stroke-miterlimit="10" stroke-width="5"/>
        <line x1="1.05" y1="1787.1" x2="214.49" y2="2000.54" fill="none" stroke="#ed1c24" stroke-miterlimit="10" stroke-width="5"/>
      </g>
      <g>
        <line x1="455.08" y1="821.27" x2="1633.81" y2="2000" fill="none" stroke="#ed1c24" stroke-miterlimit="10" stroke-width="5"/>
        <line x1="257.94" y1="827.18" x2="1430.76" y2="2000" fill="none" stroke="#ed1c24" stroke-miterlimit="10" stroke-width="5"/>
        <line x1="48.16" y1="828.06" x2="1220.1" y2="2000" fill="none" stroke="#ed1c24" stroke-miterlimit="10" stroke-width="5"/>
        <line y1="984.67" x2="1015.33" y2="2000" fill="none" stroke="#ed1c24" stroke-miterlimit="10" stroke-width="5"/>
      </g>
      <g>
        <line x1="1279.54" y1="825.82" x2="2458.27" y2="2004.55" fill="none" stroke="#ed1c24" stroke-miterlimit="10" stroke-width="5"/>
        <line x1="1082.4" y1="831.73" x2="2255.22" y2="2004.55" fill="none" stroke="#ed1c24" stroke-miterlimit="10" stroke-width="5"/>
        <line x1="872.62" y1="832.61" x2="2044.56" y2="2004.55" fill="none" stroke="#ed1c24" stroke-miterlimit="10" stroke-width="5"/>
        <line x1="663.97" y1="828.74" x2="1839.78" y2="2004.55" fill="none" stroke="#ed1c24" stroke-miterlimit="10" stroke-width="5"/>
      </g>
      <g>
        <line x1="2100.37" y1="821.27" x2="2667.57" y2="1388.47" fill="none" stroke="#ed1c24" stroke-miterlimit="10" stroke-width="5"/>
        <line x1="1903.24" y1="827.18" x2="2667.57" y2="1591.52" fill="none" stroke="#ed1c24" stroke-miterlimit="10" stroke-width="5"/>
        <line x1="1693.46" y1="828.06" x2="2667.57" y2="1802.18" fill="none" stroke="#ed1c24" stroke-miterlimit="10" stroke-width="5"/>
        <line x1="1484.81" y1="824.19" x2="2660.62" y2="2000" fill="none" stroke="#ed1c24" stroke-miterlimit="10" stroke-width="5"/>
      </g>
      <g>
        <line x1="2517.58" y1="831.02" x2="2667.57" y2="981.01" fill="none" stroke="#ed1c24" stroke-miterlimit="10" stroke-width="5"/>
        <line x1="2308.93" y1="827.14" x2="2667.57" y2="1185.79" fill="none" stroke="#ed1c24" stroke-miterlimit="10" stroke-width="5"/>
      </g>
    </g>
  </g>
  <g>
    <g>
      <path d="M2263.44,1244.19c443.13,0,116.61-544.58,116.61-544.58" fill="#f7941d" stroke="#fbb040" stroke-miterlimit="10" stroke-width="5"/>
      <path d="M2307.72,1244.19c-561,0-147.63-544.58-147.63-544.58" fill="#f7941d" stroke="#fbb040" stroke-miterlimit="10" stroke-width="5"/>
    </g>
    <ellipse cx="2263.44" cy="699.61" rx="123.78" ry="25.67" fill="#754c29" stroke="#fbb040" stroke-miterlimit="10" stroke-width="5"/>
    <polyline points="2160.09 699.61 2160.55 1156.27 2373.68 1156.27 2407.66 756.75 2379.68 725.28" fill="#f7941d"/>
  </g>
  <line x1="2263.44" y1="699.61" x2="2263.44" y2="448.15" fill="#754c29" stroke="#8b5e3c" stroke-miterlimit="10" stroke-width="30"/>
  <path d="M2539,365.94c-349.49-69.45-249.36,110.78-249.36,110.78" fill="#00a651" stroke="#00a651" stroke-miterlimit="10" stroke-width="30"/>
  <path d="M1950.64,365.94c400.53-69.45,285.78,110.78,285.78,110.78" fill="#00a651" stroke="#00a651" stroke-miterlimit="10" stroke-width="30"/>
  <rect x="507.66" y="131.04" width="513.61" height="513.61" fill="#1c75bc" stroke="#231f20" stroke-miterlimit="10" stroke-width="30"/>
  <line x1="764.47" y1="131.04" x2="764.47" y2="644.66" fill="none" stroke="#231f20" stroke-miterlimit="10" stroke-width="30"/>
  <line x1="507.66" y1="387.85" x2="1021.28" y2="387.85" fill="none" stroke="#231f20" stroke-miterlimit="10" stroke-width="30"/>
</svg>
