<svg id="Layer_1" data-name="Layer 1" xmlns="http://www.w3.org/2000/svg" viewBox="0 0 1281 1024">
  <polygon points="1281 332.71 1281 1024 293.94 1024 1281 332.71" fill="#869472"/>
  <rect x="0.5" y="0.5" width="1280" height="362" fill="#0071bc" stroke="gray" stroke-miterlimit="10"/>
  <path d="M1280,323.5l-10.41-2.85A2312.66,2312.66,0,0,0,.5,335.5L0,1024H1269.09" transform="translate(1)" fill="#869472"/>
  <path d="M206.5,802.5c11.92,15.6,53.13,14,75-6,57.09-52.27-12.57-234.77-53-234-9.17.18-17.65,9.79-21,18-10.14,24.84,23.25,45.06,33,82C257.32,726.22,187.38,777.48,206.5,802.5Z" transform="translate(1)" fill="#754c24" stroke="#000" stroke-miterlimit="10"/>
  <path d="M283.81,431.7c-80.68,18.28-97.34,34.37-97.62,45.69-.38,15.47,29.91,16.94,47.65,51,15.22,29.23,8.1,57.27,25.44,64.54,4.61,1.93,6.09.36,21-.28,27.56-1.19,34.91,3.62,47.09,2.61,29.35-2.43,51.72-35.73,60.56-56.55,14.3-33.72,5.72-64.46,2.57-75.15-8.36-28.32-34.65-78.78-71.07-76.11-24.46,1.8-43.9,26.84-51.13,47.75a74.91,74.91,0,0,0-1.48,43.17c8.23,31.35,37.18,58.13,49.29,52.79,11.1-4.9,8.83-37.1,2-58.31-2.25-7-16.18-47.49-58.42-62.56-8.21-2.92-29.94-9.33-55.44-1.89-39.54,11.53-56.14,47-60.63,56.61-9.83,21-22.6,65.3-2.87,84,13.08,12.39,28.34,2.06,81.86,2.8,54.1.75,75.53,11.8,80.56,2.76,7.12-12.82-26.86-51.22-67.51-72.29-9.7-5-95.13-49.3-136.84-4.68-26,27.79-27.07,81.58-3.53,103.19,19.29,17.7,46,5.42,127.51,4.37,33.22-.44,60.59,1.19,79,2.7" transform="translate(1)" fill="#009245" stroke="gray" stroke-miterlimit="10"/>
  <path d="M257.74,72.31c-44.21,10-53.33,18.83-53.49,25-.21,8.48,16.39,9.28,26.11,28,8.34,16,4.44,31.38,13.94,35.37,2.53,1,3.34.19,11.52-.16,15.11-.65,19.14,2,25.81,1.43,16.08-1.33,28.34-19.58,33.18-31,7.84-18.47,3.14-35.32,1.41-41.17-4.58-15.52-19-43.17-38.94-41.71-13.4,1-24.06,14.71-28,26.17a41.06,41.06,0,0,0-.81,23.65c4.51,17.18,20.37,31.85,27,28.93,6.08-2.69,4.84-20.33,1.09-31.95-1.23-3.82-8.86-26-32-34.28a49.77,49.77,0,0,0-30.37-1c-21.67,6.32-30.77,25.77-33.23,31-5.38,11.52-12.38,35.78-1.57,46,7.17,6.79,15.53,1.13,44.86,1.53,29.64.41,41.38,6.47,44.14,1.51,3.9-7-14.72-28.06-37-39.61-5.32-2.75-52.13-27-75-2.56-14.23,15.23-14.83,44.7-1.93,56.54,10.57,9.7,25.19,3,69.87,2.39,18.2-.23,33.2.66,43.28,1.48" transform="translate(1)" fill="#e6e6e6"/>
  <path d="M544.15,135.54c-22.17,3.43-26.72,6.59-26.77,8.84-.06,3.08,8.29,3.45,13.26,10.29,4.27,5.86,2.38,11.42,7.18,12.91,1.27.4,1.68.09,5.79,0,7.58-.16,9.62.82,13,.65,8.08-.41,14.15-7,16.53-11.11a16.26,16.26,0,0,0,.51-15c-2.37-5.67-9.74-15.78-19.77-15.34-6.73.29-12,5.22-14,9.37a11,11,0,0,0-.3,8.59c2.35,6.27,10.39,11.67,13.72,10.64,3-.94,2.33-7.36.39-11.6-.63-1.4-4.58-9.5-16.25-12.61a34.24,34.24,0,0,0-15.27-.53,24.53,24.53,0,0,0-16.55,11.12c-2.66,4.16-6.06,12.94-.57,16.72,3.63,2.5,7.8.48,22.55.77s20.83,2.54,22.19.76c1.93-2.54-7.53-10.27-18.78-14.57-2.68-1-26.33-10.07-37.7-1.29-7.08,5.46-7.24,16.17-.7,20.54,5.36,3.57,12.67,1.19,35.13,1.2,9.14,0,16.69.39,21.76.74" transform="translate(1)" fill="#e6e6e6"/>
  <path d="M540.15,47.54C518,51,513.43,54.13,513.38,56.38c-.06,3.08,8.29,3.45,13.26,10.29,4.27,5.86,2.38,11.42,7.18,12.91,1.27.4,1.68.09,5.79,0,7.58-.16,9.62.82,13,.65,8.08-.41,14.15-7,16.53-11.11a16.26,16.26,0,0,0,.51-15c-2.37-5.67-9.74-15.78-19.77-15.34-6.73.29-12,5.22-14,9.37a11,11,0,0,0-.3,8.59C538,63.06,546,68.46,549.32,67.43c3-.94,2.33-7.36.39-11.6-.63-1.4-4.58-9.5-16.25-12.61a34.24,34.24,0,0,0-15.27-.53,24.53,24.53,0,0,0-16.55,11.12c-2.66,4.16-6.06,12.94-.57,16.72,3.63,2.5,7.8.48,22.55.77s20.83,2.54,22.19.76c1.93-2.54-7.53-10.27-18.78-14.57-2.68-1-26.33-10.07-37.7-1.29-7.08,5.46-7.24,16.17-.7,20.54,5.36,3.57,12.67,1.19,35.13,1.2,9.14,0,16.69.39,21.76.74" transform="translate(1)" fill="#e6e6e6"/>
  <path d="M514.15,35.54C492,39,487.43,42.13,487.38,44.38c-.06,3.08,8.29,3.45,13.26,10.29,4.27,5.86,2.38,11.42,7.18,12.91,1.27.4,1.68.09,5.79,0,7.58-.16,9.62.82,13,.65,8.08-.41,14.15-7,16.53-11.11a16.26,16.26,0,0,0,.51-14.95c-2.37-5.67-9.74-15.78-19.77-15.34-6.73.29-12,5.22-14,9.37a11,11,0,0,0-.3,8.59C512,51.06,520,56.46,523.32,55.43c3-.94,2.33-7.36.39-11.6-.63-1.4-4.58-9.5-16.25-12.61a34.24,34.24,0,0,0-15.27-.53,24.53,24.53,0,0,0-16.55,11.12c-2.66,4.16-6.06,12.94-.57,16.72,3.63,2.5,7.8.48,22.55.77s20.83,2.54,22.19.76c1.93-2.54-7.53-10.27-18.78-14.57-2.68-1-26.33-10.07-37.7-1.29-7.08,5.46-7.24,16.17-.7,20.54,5.36,3.57,12.67,1.19,35.13,1.2,9.14,0,16.69.39,21.76.74" transform="translate(1)" fill="#e6e6e6"/>
  <path d="M1193.87,35.77c-44.1,6.75-53.13,13-53.23,17.43-.12,6.07,16.48,6.81,26.37,20.29,8.5,11.57,4.74,22.54,14.28,25.49,2.54.78,3.34.17,11.52,0,15.09-.32,19.14,1.61,25.81,1.28,16.06-.8,28.14-13.76,32.87-21.89,7.66-13.17,2.79-25.29,1-29.5-4.73-11.17-19.4-31.13-39.34-30.27-13.38.57-23.9,10.3-27.75,18.48a21.52,21.52,0,0,0-.58,17c4.67,12.35,20.68,23,27.28,21,6.06-1.86,4.64-14.52.79-22.89-1.27-2.75-9.12-18.74-32.34-24.88a68.74,68.74,0,0,0-30.37-1c-21.6,4.32-30.51,18.17-32.91,21.92-5.28,8.2-12,25.52-1.13,33,7.23,4.94,15.53,1,44.85,1.54,29.64.58,41.44,5,44.15,1.51,3.83-5-15-20.26-37.37-28.75-5.34-2-52.37-19.87-75-2.57-14.08,10.78-14.4,31.9-1.38,40.51,10.65,7.06,25.2,2.38,69.86,2.39,18.2,0,33.2.79,43.29,1.48" transform="translate(1)" fill="#e6e6e6"/>
  <path d="M690.81,122.31c43.84-11.51,52.66-20.64,52.6-26.85-.08-8.47-16.7-8.71-27-27-8.88-15.72-5.51-31.21-15.14-34.87-2.56-1-3.34-.08-11.51.55-15.07,1.17-19.19-1.33-25.84-.55-16,1.88-27.66,20.54-32.1,32.11-7.21,18.73-1.93,35.41,0,41.2,5.11,15.35,20.45,42.49,40.34,40.35,13.36-1.44,23.54-15.52,27.11-27.11a41.08,41.08,0,0,0,0-23.67c-5.09-17-21.45-31.13-28-28-6,2.89-4.14,20.48,0,32,1.36,3.77,9.74,25.7,33.16,33.16a49.87,49.87,0,0,0,30.39,0c21.44-7.06,29.87-26.8,32.15-32.14,5-11.7,11.15-36.18,0-46-7.4-6.54-15.56-.6-44.89,0-29.64.6-41.58-5-44.16,0-3.66,7.15,15.66,27.54,38.32,38.32,5.41,2.57,53,25.21,75,0,13.7-15.71,13.3-45.19,0-56.58-10.9-9.33-25.28-2.11-69.91,0-18.19.86-33.21.48-43.31,0" transform="translate(1)" fill="#e6e6e6"/>
  <path d="M749.78,749.76c9.2,12.25,41,11,57.87-4.71,44-41-9.7-184.23-40.9-183.63-7.07.14-13.61,7.69-16.2,14.13C742.72,595,768.49,610.91,776,639.9,789,689.9,735,730.13,749.78,749.76Z" transform="translate(1)" fill="#754c24" stroke="#000" stroke-miterlimit="10"/>
  <path d="M809.43,458.78c-62.25,14.34-75.1,27-75.32,35.86-.29,12.13,23.08,13.29,36.77,40,11.74,22.94,6.24,44.94,19.63,50.65,3.55,1.51,4.7.28,16.22-.22,21.26-.94,26.94,2.83,36.33,2,22.65-1.9,39.91-28,46.73-44.38,11-26.46,4.42-50.58,2-59C885.32,461.58,865,422,836.93,424.08c-18.86,1.41-33.87,21.06-39.45,37.47a59.86,59.86,0,0,0-1.14,33.88c6.35,24.6,28.69,45.61,38,41.42,8.56-3.84,6.81-29.11,1.54-45.76-1.73-5.46-12.48-37.27-45.08-49.09a69.22,69.22,0,0,0-42.77-1.49c-30.51,9.06-43.32,36.91-46.78,44.44-7.59,16.49-17.44,51.24-2.22,65.9,10.09,9.71,21.87,1.61,63.16,2.19,41.75.59,58.28,9.26,62.16,2.17,5.49-10.06-20.72-40.2-52.08-56.73-7.49-4-73.4-38.69-105.59-3.67-20,21.81-20.89,64-2.72,81,14.88,13.89,35.47,4.25,98.38,3.42,25.63-.34,46.75.94,60.94,2.12" transform="translate(1)" fill="#009245" stroke="gray" stroke-miterlimit="10"/>
  <path d="M471.78,1013.76c9.2,12.25,41,11,57.87-4.71,44-41-9.7-184.23-40.9-183.63-7.07.14-13.61,7.69-16.2,14.13C464.72,859,490.49,874.91,498,903.9,511,953.9,457,994.13,471.78,1013.76Z" transform="translate(1)" fill="#754c24" stroke="#000" stroke-miterlimit="10"/>
  <path d="M531.43,722.78c-62.25,14.34-75.1,27-75.32,35.86-.29,12.13,23.08,13.29,36.77,40,11.74,22.94,6.24,44.94,19.63,50.65,3.55,1.51,4.7.28,16.22-.22,21.26-.94,26.94,2.83,36.33,2,22.65-1.9,39.91-28,46.73-44.38,11-26.46,4.42-50.58,2-59C607.32,725.58,587,686,558.93,688.08c-18.86,1.41-33.87,21.06-39.45,37.47a59.86,59.86,0,0,0-1.14,33.88c6.35,24.6,28.69,45.61,38,41.42,8.56-3.84,6.81-29.11,1.54-45.76-1.73-5.46-12.48-37.27-45.08-49.09a69.22,69.22,0,0,0-42.77-1.49c-30.51,9.06-43.32,36.91-46.78,44.44-7.59,16.49-17.44,51.24-2.22,65.9,10.09,9.71,21.87,1.61,63.16,2.19,41.75.59,58.28,9.26,62.16,2.17,5.49-10.06-20.72-40.2-52.08-56.73-7.49-4-73.4-38.69-105.59-3.67-20,21.81-20.89,64-2.72,81,14.88,13.89,35.47,4.25,98.38,3.42,25.63-.34,46.75.94,60.94,2.12" transform="translate(1)" fill="#009245" stroke="gray" stroke-miterlimit="10"/>
  <path d="M1062.63,959.36c7.51,11.36,33.47,10.21,47.24-4.37,36-38.07-7.91-171-33.38-170.44-5.77.13-11.11,7.13-13.23,13.11-6.39,18.09,14.65,32.82,20.79,59.72C1094.65,903.8,1050.59,941.13,1062.63,959.36Z" transform="translate(1)" fill="#754c24" stroke="#000" stroke-miterlimit="10"/>
  <path d="M1111.33,689.28c-50.82,13.31-61.31,25-61.49,33.28-.24,11.27,18.84,12.34,30,37.16,9.58,21.3,5.1,41.72,16,47,2.9,1.41,3.84.27,13.24-.2,17.36-.87,22,2.63,29.66,1.9,18.49-1.77,32.58-26,38.14-41.19,9-24.56,3.61-47,1.62-54.73-5.26-20.63-21.82-57.38-44.76-55.44-15.4,1.31-27.65,19.55-32.2,34.78a62.64,62.64,0,0,0-.93,31.44c5.18,22.84,23.41,42.34,31,38.45,7-3.56,5.56-27,1.26-42.47-1.42-5.07-10.19-34.59-36.8-45.56a50,50,0,0,0-34.91-1.38c-24.91,8.4-35.36,34.25-38.19,41.24-6.19,15.31-14.23,47.55-1.81,61.16,8.24,9,17.85,1.5,51.56,2,34.08.54,47.57,8.6,50.74,2,4.48-9.33-16.92-37.31-42.52-52.65-6.11-3.66-59.91-35.91-86.19-3.41-16.36,20.24-17.05,59.42-2.22,75.16,12.15,12.89,28.95,4,80.31,3.18a453.48,453.48,0,0,1,49.75,2" transform="translate(1)" fill="#009245" stroke="gray" stroke-miterlimit="10"/>
  <path d="M1004.63,374.36c7.51,11.36,33.47,10.21,47.24-4.37,36-38.07-7.91-171-33.38-170.44-5.77.13-11.11,7.13-13.23,13.11-6.39,18.09,14.65,32.82,20.79,59.72C1036.65,318.8,992.59,356.13,1004.63,374.36Z" transform="translate(1)" fill="#754c24" stroke="#000" stroke-miterlimit="10"/>
  <path d="M1053.33,104.28c-50.82,13.31-61.31,25-61.49,33.28-.24,11.27,18.84,12.34,30,37.16,9.58,21.3,5.1,41.72,16,47,2.9,1.41,3.84.27,13.24-.2,17.36-.87,22,2.63,29.66,1.9,18.49-1.77,32.58-26,38.14-41.19,9-24.56,3.61-47,1.62-54.73-5.26-20.63-21.82-57.38-44.76-55.44-15.4,1.31-27.65,19.55-32.2,34.78a62.64,62.64,0,0,0-.93,31.44c5.18,22.84,23.41,42.34,31,38.45,7-3.56,5.56-27,1.26-42.47-1.42-5.07-10.19-34.59-36.8-45.56a50,50,0,0,0-34.91-1.38c-24.91,8.4-35.36,34.25-38.19,41.24-6.19,15.31-14.23,47.55-1.81,61.16,8.24,9,17.85,1.5,51.56,2,34.08.54,47.57,8.6,50.74,2,4.48-9.33-16.92-37.31-42.52-52.65-6.11-3.66-59.91-35.91-86.19-3.41-16.36,20.24-17.05,59.42-2.22,75.16,12.15,12.89,28.95,4,80.31,3.18a453.48,453.48,0,0,1,49.75,2" transform="translate(1)" fill="#009245" stroke="gray" stroke-miterlimit="10"/>
  <path d="M485,298.65c4.28,6.47,19.07,5.82,26.92-2.49,20.49-21.7-4.51-97.46-19-97.14-3.29.07-6.33,4.06-7.53,7.47-3.65,10.31,8.34,18.71,11.84,34C503.2,267,478.09,288.26,485,298.65Z" transform="translate(1)" fill="#754c24" stroke="#000" stroke-miterlimit="10"/>
  <path d="M512.71,144.72c-29,7.59-34.94,14.27-35,19-.14,6.42,10.73,7,17.1,21.18,5.46,12.14,2.91,23.78,9.13,26.79,1.66.81,2.19.15,7.55-.11,9.89-.5,12.53,1.5,16.9,1.08,10.54-1,18.57-14.83,21.74-23.48,5.14-14,2.06-26.75.93-31.19-3-11.76-12.44-32.7-25.52-31.59-8.77.74-15.75,11.14-18.35,19.82a35.78,35.78,0,0,0-.53,17.92c2.95,13,13.35,24.13,17.69,21.91,4-2,3.17-15.4.72-24.2-.81-2.89-5.81-19.72-21-26a28.49,28.49,0,0,0-19.9-.79C470,139.85,464,154.58,462.4,158.56c-3.53,8.73-8.12,27.11-1,34.86,4.69,5.15,10.17.86,29.38,1.17,19.42.31,27.11,4.9,28.92,1.14,2.55-5.32-9.64-21.26-24.23-30-3.49-2.08-34.15-20.46-49.13-1.94-9.32,11.54-9.71,33.87-1.26,42.84,6.92,7.35,16.5,2.25,45.77,1.81a258.29,258.29,0,0,1,28.35,1.12" transform="translate(1)" fill="#009245" stroke="gray" stroke-miterlimit="10"/>
  <path d="M128,319.09c2.7,4.82,12,4.33,17-1.85,12.94-16.13-2.85-72.44-12-72.2-2.08.05-4,3-4.76,5.55-2.3,7.66,5.27,13.91,7.48,25.3C139.54,295.56,123.69,311.37,128,319.09Z" transform="translate(1)" fill="#754c24" stroke="#000" stroke-miterlimit="10"/>
  <path d="M145.55,204.68c-18.29,5.63-22.07,10.6-22.13,14.09-.09,4.78,6.78,5.23,10.8,15.75,3.45,9,1.83,17.67,5.77,19.91,1,.6,1.38.12,4.76-.08,6.25-.37,7.92,1.11,10.68.8,6.65-.74,11.72-11,13.72-17.45,3.25-10.4,1.3-19.89.59-23.18-1.9-8.74-7.86-24.31-16.11-23.49-5.55.56-10,8.28-11.59,14.73a31.11,31.11,0,0,0-.34,13.33c1.87,9.67,8.43,17.93,11.17,16.28,2.52-1.51,2-11.44.46-18-.51-2.15-3.67-14.65-13.25-19.3a15.54,15.54,0,0,0-12.56-.59c-9,3.56-12.73,14.51-13.75,17.47-2.22,6.49-5.12,20.15-.65,25.92,3,3.82,6.43.63,18.56.86s17.12,3.64,18.26.85c1.61-4-6.09-15.8-15.3-22.3-2.2-1.56-21.57-15.22-31-1.45-5.89,8.58-6.14,25.18-.8,31.84,4.37,5.47,10.42,1.68,28.9,1.35a141.2,141.2,0,0,1,17.91.83" transform="translate(1)" fill="#009245" stroke="gray" stroke-miterlimit="10"/>
</svg>
